<?xml version="1.0" encoding="UTF-8"?>
<svg width="92px" height="78px" viewBox="0 0 92 78" version="1.1" xmlns="http://www.w3.org/2000/svg" xmlns:xlink="http://www.w3.org/1999/xlink">
    <!-- Generator: Sketch 57.1 (83088) - https://sketch.com -->
    <title>TTCP 2Risorsa 3</title>
    <desc>Created with Sketch.</desc>
    <g id="Symbols" stroke="none" stroke-width="1" fill="none" fill-rule="evenodd">
        <g id="Menu" transform="translate(-28.000000, -24.000000)" fill-rule="nonzero">
            <g transform="translate(12.000000, 5.000000)" id="TTCP-2Risorsa-3">
                <g transform="translate(16.000000, 19.000000)">
                    <g id="divisioni" transform="translate(3.435340, 6.870679)" stroke="#3B1993" stroke-width="2.2902264">
                        <path d="M52.1412982,29.7110452 L52.1412982,28.2997705 C52.1412982,18.1757319 55.5148835,10.2205995 61.530613,3.04538213 L62.4710372,1.93121794 L62.4710372,0.155982987 C62.4710372,0.155982987 56.5000898,1.58954092 50.7306618,7.91056578 C42.0951792,17.4032447 41.0502634,31.3451527 40.3412134,40.57786 C39.9794733,45.2355482 39.9794733,49.914074 40.3412134,54.5717623 C40.5829106,54.649205 40.83392,54.6941693 41.0875818,54.705462 C41.3382817,54.717693 41.5894734,54.6951945 41.8339502,54.6386121 C41.8339502,54.6386121 43.446106,38.1712653 52.1412982,29.7110452 Z" id="Path" fill="#FF0084"></path>
                        <path d="M65.7998403,54.6386121 L65.7998403,54.6831787 L65.4191925,54.6386121 C61.4990067,54.1855002 57.5392934,54.1855002 53.6191077,54.6386121 C53.5444708,54.1038133 52.3054992,42.412517 58.8436866,36.3886026 C61.0450647,34.4444415 63.919117,33.4271196 66.8596835,33.5511978 C80.1301141,33.5511978 83.0857331,44.0986188 83.0857331,44.0986188 L82.2498004,44.0986188 C81.1750299,41.6474576 78.6970867,38.8249083 72.9724409,38.8249083 C62.9188582,38.8249083 65.7998403,54.6386121 65.7998403,54.6386121 Z" id="Path" fill="#00AEF3"></path>
                        <path d="M17.8307417,54.6386121 L17.8307417,54.6831787 L18.2113896,54.6386121 C22.1315754,54.1855002 26.0912886,54.1855002 30.0114744,54.6386121 C30.0114744,45.8515705 28.5187375,33.5511978 16.7335801,33.5511978 C3.45568581,33.5511978 0.507530529,44.0986188 0.507530529,44.0986188 L1.34346317,44.0986188 C2.4182337,41.6474576 4.89617687,38.8249083 10.6208227,38.8249083 C20.7117238,38.8249083 17.8307417,54.6386121 17.8307417,54.6386121 Z" id="Path" fill="#FFAE21"></path>
                    </g>
                    <path d="M88.5771633,49.0620409 C88.0986849,44.313389 85.2203379,29.6330604 67.9801607,29.6330604 C64.2935712,29.6037003 60.6950054,30.7419189 57.7153024,32.8798131 C58.1115424,24.7298012 60.9450321,17.743025 66.6120114,11.0728256 L67.5465396,9.91695215 C68.1334327,10.2742156 68.80792,10.4676239 69.4978346,10.4764832 C71.9425605,10.4764832 73.9312366,8.12792515 73.9312366,5.24928499 C73.9312366,2.37064483 71.9051794,0 69.4604535,0 C67.5315872,0 65.9017699,1.47245021 65.2961956,3.50443149 C50.5156968,3.71793677 39.8770272,7.8039861 33.5895212,15.6815947 C30.3682661,19.7617047 28.4597984,24.6973028 28.1094475,29.853928 C27.1209242,29.6934807 26.1208171,29.6122297 25.1189571,29.6109737 C9.80764629,29.6109737 4.18552435,41.6408919 3.1089478,49.0399542 C1.13322657,49.9041692 -0.0995286334,51.8757603 0.00631401754,54.0021114 C0.00631401754,56.8807515 1.99499013,59.2293096 4.43971603,59.2293096 C6.88444193,59.2293096 8.87311804,56.8807515 8.87311804,54.0021114 C8.89178564,52.5454409 8.34027906,51.1376021 7.33301549,50.0706693 C8.77592711,48.0828615 11.2356055,47.0300596 14.5700022,47.0300596 C16.3572105,46.9307279 18.0641085,47.7711661 19.0557378,49.2387349 C21.0518902,52.1836354 20.7378887,57.2562263 20.4762208,59.5458864 L23.4667112,59.4575394 C23.7657602,56.512639 23.9078085,50.8142567 21.3658917,47.0963199 C19.8738549,44.835615 17.283419,43.5153892 14.5475736,43.6213374 C11.0860809,43.6213374 8.67125994,44.5710678 6.97415664,45.8815485 C8.76097465,40.6028145 13.3439012,33.0933184 25.1264333,33.0933184 C32.4307061,33.0933184 37.8360175,37.7020876 41.2900339,46.7871054 C42.7702374,50.8758715 43.7466403,55.1248403 44.1982859,59.4428149 L47.5177302,59.4428149 C48.1885372,55.1285747 49.3677713,50.9060477 51.0315564,46.8607279 C54.9490988,37.7315366 60.645983,33.0933184 67.9801607,33.0933184 C80.0168846,33.0933184 83.8820934,41.0371873 85.1231469,46.2054875 C83.4110912,44.7330373 80.8616981,43.5477149 77.0637753,43.5477149 C74.3279299,43.4417667 71.737494,44.7619925 70.2454572,47.0226974 C67.7035404,50.7038229 67.8455887,56.4095675 68.1446377,59.3839169 L71.1351281,59.4649016 C70.8211266,56.8144913 70.6940308,51.9333188 72.555611,49.2092859 C73.5482786,47.7428747 75.2544559,46.9027913 77.0413466,47.0006106 C80.3682672,47.0006106 82.8354218,48.0534125 84.2783334,50.0412203 C83.2710698,51.1081531 82.7195632,52.5159919 82.7382308,53.9726624 C82.7382308,56.8513025 84.726907,59.1998606 87.1716329,59.1998606 C89.6163587,59.1998606 91.6050349,56.8513025 91.6050349,53.9726624 C91.6875067,51.8858458 90.4954337,49.9525343 88.5771633,49.0620409 Z M69.4604535,3.48234474 C70.3611734,3.56035697 71.0290455,4.33972009 70.9556987,5.22719824 C70.9556987,6.04041003 70.2862546,6.69964845 69.4604535,6.69964845 C68.6346524,6.69964845 67.9652083,6.04041003 67.9652083,5.22719824 C67.8918615,4.33972009 68.5597336,3.56035697 69.4604535,3.48234474 Z M2.92830794,54.0131547 C2.92830794,53.1533065 3.55686134,52.4182931 4.41728735,52.2719824 C5.27771337,52.4182931 5.90626676,53.1533065 5.90626676,54.0131547 C5.90626676,54.873003 5.27771337,55.6080164 4.41728735,55.7543271 C3.55686134,55.6080164 2.92830794,54.873003 2.92830794,54.0131547 Z M54.657526,34.8528964 L54.657526,35.48605 C50.1045044,40.2420642 47.4803491,47.0079729 46.022485,52.3456049 C45.5074158,50.0113979 44.8330243,47.7140678 44.003904,45.4692624 C41.0806996,37.6579141 36.6472976,32.6294966 31.0102232,30.6196021 C31.2267409,26.0668666 32.8753307,21.6930519 35.7277218,18.1037753 C41.4021773,10.9476673 51.4560078,7.14138351 65.3842169,6.96468948 C65.4240901,7.08739367 65.2611058,7.40923374 64.8952642,7.93020972 L64.4887632,8.58438471 C57.8050172,16.4988046 54.6799547,24.840235 54.6799547,34.8381719 L54.657526,34.8528964 Z M87.1716329,55.7543271 C86.4285788,55.8780087 85.6862262,55.531285 85.313343,54.8863932 C84.9404597,54.2415013 85.0165163,53.4358831 85.5037311,52.8697343 C85.9909458,52.3035854 86.7854817,52.0975656 87.4926483,52.3540165 C88.1998149,52.6104674 88.6688981,53.2747332 88.666878,54.0168359 C88.7279643,54.8882247 88.0764045,55.6503599 87.1940615,55.7396026 L87.1716329,55.7543271 Z" id="punte" fill="#3B1993"></path>
                    <path d="M71.6068251,60.0183643 C69.2546979,56.1635442 22.1598853,56.5100449 20.001902,60.0183643 C18.9148187,61.883219 18.3366365,63.984892 18.3218112,66.1254387 L18.3218112,73.1926088 C18.3218112,75.1416751 19.6882851,76.7225844 21.375843,76.7225844 L70.2328841,76.7225844 C71.0750485,76.7052131 71.8656949,76.327003 72.3908674,75.6903011 C72.9819307,74.9843544 73.2989217,74.1007572 73.2872448,73.1926088 L73.2872448,66.1254387 C73.2649761,63.98582 72.687257,61.8858304 71.6068251,60.0183643 L71.6068251,60.0183643 Z" id="base" stroke="#3B1993" stroke-width="1.908522" fill="#3B1993"></path>
                </g>
            </g>
        </g>
    </g>
</svg>