<?xml version="1.0" encoding="UTF-8"?>
<svg width="700px" height="625px" viewBox="0 0 700 625" version="1.1" xmlns="http://www.w3.org/2000/svg" xmlns:xlink="http://www.w3.org/1999/xlink">
    <!-- Generator: Sketch 57.1 (83088) - https://sketch.com -->
    <title>baceknRisorsa 2</title>
    <desc>Created with Sketch.</desc>
    <defs>
        <linearGradient x1="99.908643%" y1="49.9530514%" x2="-0.0703561134%" y2="49.9530514%" id="linearGradient-1">
            <stop stop-color="#2483C5" offset="0%"></stop>
            <stop stop-color="#3B1993" offset="100%"></stop>
        </linearGradient>
        <linearGradient x1="100%" y1="49.6376812%" x2="0.00144959166%" y2="49.6376812%" id="linearGradient-2">
            <stop stop-color="#2945AA" offset="0%"></stop>
            <stop stop-color="#243D83" offset="100%"></stop>
        </linearGradient>
        <linearGradient x1="24.4384282%" y1="37.3966942%" x2="83.5301684%" y2="65.8057851%" id="linearGradient-3">
            <stop stop-color="#F7ADB3" offset="0%"></stop>
            <stop stop-color="#F6C5CE" offset="100%"></stop>
        </linearGradient>
        <linearGradient x1="100%" y1="50.1957543%" x2="0%" y2="50.1957543%" id="linearGradient-4">
            <stop stop-color="#4466C6" offset="0%"></stop>
            <stop stop-color="#3B1B95" offset="42%"></stop>
            <stop stop-color="#3B1993" offset="100%"></stop>
        </linearGradient>
        <linearGradient x1="40.5115844%" y1="81.9855358%" x2="54.8974259%" y2="5.85141354%" id="linearGradient-5">
            <stop stop-color="#4466C6" offset="0%"></stop>
            <stop stop-color="#3B1993" offset="63%"></stop>
        </linearGradient>
        <linearGradient x1="100%" y1="49.9899417%" x2="0.0207109844%" y2="49.9899417%" id="linearGradient-6">
            <stop stop-color="#FFB513" offset="0%"></stop>
            <stop stop-color="#F4930A" offset="100%"></stop>
        </linearGradient>
        <linearGradient x1="50%" y1="-12.5982123%" x2="50%" y2="97.998009%" id="linearGradient-7">
            <stop stop-color="#FFB513" offset="0%"></stop>
            <stop stop-color="#C98000" offset="100%"></stop>
        </linearGradient>
        <linearGradient x1="427.42447%" y1="28.2676182%" x2="427.42447%" y2="89.0635649%" id="linearGradient-8">
            <stop stop-color="#FFB513" offset="0%"></stop>
            <stop stop-color="#C98000" offset="100%"></stop>
        </linearGradient>
        <linearGradient x1="114.517894%" y1="58.9792572%" x2="37.0832223%" y2="25.6326055%" id="linearGradient-9">
            <stop stop-color="#F7ADB3" offset="0%"></stop>
            <stop stop-color="#F6C5CE" offset="100%"></stop>
        </linearGradient>
        <linearGradient x1="100%" y1="49.9858988%" x2="2.64996048e-14%" y2="49.9858988%" id="linearGradient-10">
            <stop stop-color="#F7ADB3" offset="0%"></stop>
            <stop stop-color="#E5A1A9" offset="100%"></stop>
        </linearGradient>
        <linearGradient x1="41.4028283%" y1="15.0100808%" x2="42.920382%" y2="90.33931%" id="linearGradient-11">
            <stop stop-color="#F7ADB3" offset="0%"></stop>
            <stop stop-color="#F6C5CE" offset="100%"></stop>
        </linearGradient>
        <linearGradient x1="10.9280607%" y1="42.5698646%" x2="55.6039926%" y2="57.5682482%" id="linearGradient-12">
            <stop stop-color="#4466C6" offset="0%"></stop>
            <stop stop-color="#243D83" offset="100%"></stop>
        </linearGradient>
        <linearGradient x1="143.595506%" y1="50%" x2="243.820225%" y2="50%" id="linearGradient-13">
            <stop stop-color="#FFB513" offset="0%"></stop>
            <stop stop-color="#C98000" offset="100%"></stop>
        </linearGradient>
        <linearGradient x1="90.0398406%" y1="50.167021%" x2="189.774236%" y2="50.167021%" id="linearGradient-14">
            <stop stop-color="#FFB513" offset="0%"></stop>
            <stop stop-color="#C98000" offset="100%"></stop>
        </linearGradient>
        <linearGradient x1="140.133333%" y1="-4.08098703%" x2="140.133333%" y2="74.2486555%" id="linearGradient-15">
            <stop stop-color="#FFB513" offset="0%"></stop>
            <stop stop-color="#F4930A" offset="100%"></stop>
        </linearGradient>
        <linearGradient x1="-136.295645%" y1="5.33750507%" x2="-206.781889%" y2="73.2462459%" id="linearGradient-16">
            <stop stop-color="#F7ADB3" offset="0%"></stop>
            <stop stop-color="#F6C5CE" offset="100%"></stop>
        </linearGradient>
        <linearGradient x1="99.5319134%" y1="105.569155%" x2="103.264147%" y2="-23.623011%" id="linearGradient-17">
            <stop stop-color="#FFB513" offset="0%"></stop>
            <stop stop-color="#C98000" offset="100%"></stop>
        </linearGradient>
        <linearGradient x1="317.715618%" y1="57.985728%" x2="74.4755245%" y2="33.9075623%" id="linearGradient-18">
            <stop stop-color="#FFB513" offset="0%"></stop>
            <stop stop-color="#C98000" offset="100%"></stop>
        </linearGradient>
        <linearGradient x1="147.102098%" y1="13.7315749%" x2="100.930145%" y2="88.4406517%" id="linearGradient-19">
            <stop stop-color="#F7ADB3" offset="0%"></stop>
            <stop stop-color="#F6C5CE" offset="100%"></stop>
        </linearGradient>
        <linearGradient x1="115.059654%" y1="49.9204861%" x2="215.055759%" y2="49.9204861%" id="linearGradient-20">
            <stop stop-color="#F7ADB3" offset="0%"></stop>
            <stop stop-color="#E5A1A9" offset="100%"></stop>
        </linearGradient>
        <linearGradient x1="281.833616%" y1="49.9775106%" x2="381.833616%" y2="49.9775106%" id="linearGradient-21">
            <stop stop-color="#4466C6" offset="0%"></stop>
            <stop stop-color="#243D83" offset="100%"></stop>
        </linearGradient>
        <linearGradient x1="99.9721396%" y1="50.0034159%" x2="-0.0190579589%" y2="50.0034159%" id="linearGradient-22">
            <stop stop-color="#4466C6" offset="0%"></stop>
            <stop stop-color="#3B1993" offset="100%"></stop>
        </linearGradient>
        <linearGradient x1="5.40512887%" y1="47.2720065%" x2="-81.4279155%" y2="52.6613844%" id="linearGradient-23">
            <stop stop-color="#F7ADB3" offset="0%"></stop>
            <stop stop-color="#F6C5CE" offset="100%"></stop>
        </linearGradient>
        <linearGradient x1="135.794937%" y1="9.89272944%" x2="131.15584%" y2="99.5629718%" id="linearGradient-24">
            <stop stop-color="#FFB513" offset="0%"></stop>
            <stop stop-color="#C98000" offset="100%"></stop>
        </linearGradient>
        <linearGradient x1="417.142857%" y1="50%" x2="516.785714%" y2="50%" id="linearGradient-25">
            <stop stop-color="#FFB513" offset="0%"></stop>
            <stop stop-color="#C98000" offset="100%"></stop>
        </linearGradient>
        <linearGradient x1="50.5252775%" y1="16.8396384%" x2="49.1007962%" y2="113.759625%" id="linearGradient-26">
            <stop stop-color="#D9E8FF" offset="0%"></stop>
            <stop stop-color="#B1C7F2" offset="100%"></stop>
        </linearGradient>
        <linearGradient x1="-167.821261%" y1="93.4320988%" x2="-169.886896%" y2="47.0617284%" id="linearGradient-27">
            <stop stop-color="#D9E8FF" offset="0%"></stop>
            <stop stop-color="#B1C7F2" offset="100%"></stop>
        </linearGradient>
        <linearGradient x1="50.0130856%" y1="139.896373%" x2="50.0130856%" y2="20.984456%" id="linearGradient-28">
            <stop stop-color="#FF0084" offset="45%"></stop>
            <stop stop-color="#A01E7A" offset="100%"></stop>
        </linearGradient>
        <linearGradient x1="29.1251126%" y1="50.302298%" x2="97.9981434%" y2="49.3053852%" id="linearGradient-29">
            <stop stop-color="#F7B500" offset="0%"></stop>
            <stop stop-color="#FFAE21" offset="0%"></stop>
            <stop stop-color="#FF0084" offset="59.9081503%"></stop>
            <stop stop-color="#FFAE21" offset="100%"></stop>
        </linearGradient>
        <linearGradient x1="-184.580838%" y1="50.4732425%" x2="-353.443114%" y2="50.4732425%" id="linearGradient-30">
            <stop stop-color="#D9E8FF" offset="0%"></stop>
            <stop stop-color="#B1C7F2" offset="100%"></stop>
        </linearGradient>
        <linearGradient x1="-166.265965%" y1="50.3877423%" x2="-310.969196%" y2="49.1299442%" id="linearGradient-31">
            <stop stop-color="#D9E8FF" offset="0%"></stop>
            <stop stop-color="#B1C7F2" offset="100%"></stop>
        </linearGradient>
        <linearGradient x1="-245.639944%" y1="49.6503497%" x2="-145.639944%" y2="49.6503497%" id="linearGradient-32">
            <stop stop-color="#D9E8FF" offset="0%"></stop>
            <stop stop-color="#B1C7F2" offset="100%"></stop>
        </linearGradient>
        <linearGradient x1="-118.331198%" y1="13.0636738%" x2="-106.160125%" y2="82.9875846%" id="linearGradient-33">
            <stop stop-color="#D9E8FF" offset="0%"></stop>
            <stop stop-color="#B1C7F2" offset="100%"></stop>
        </linearGradient>
    </defs>
    <g id="Page-1" stroke="none" stroke-width="1" fill="none" fill-rule="evenodd">
        <g id="MainPage" transform="translate(0.000000, -3637.000000)">
            <g id="Block-with-Quote" transform="translate(-30.000000, 3533.000000)">
                <g id="baceknRisorsa-2" transform="translate(0.000000, 104.000000)">
                    <path d="M730,624 L1,624 L1,78.5492463 C34.5545657,96.4549934 75.1447661,106.572967 105.752784,78.2426411 C168.532294,19.9876421 306.418708,-49.1211831 377.737194,50.0349573 C449.055679,149.191098 496.621381,263.984106 622.601336,309.484327 C748.581292,354.984547 624.946548,440.466093 655.855234,539.806196 C672.69265,593.830043 705.706013,606.155574 730,624 Z" id="Path" fill="#FFFFFF"></path>
                    <path d="M1,132.730862 C56.26128,120.832458 108.51923,128.621619 136.209936,57.3538618 C170.027437,-29.6762139 282.892595,1.05110668 338.634408,57.3538618 C394.376221,113.656617 430.716519,57.3538618 545.083342,80.3533533 C659.450165,103.352845 626.23333,182.716423 589.112166,271.157135 C551.991002,359.597846 621.187735,336.230363 666.297758,459.446305 C681.374477,500.600062 669.361155,561.380051 646.716044,624 L1,624 L1,132.730862 Z" id="Path" fill="#2F3091" opacity="0.6"></path>
                    <g id="Group" transform="translate(0.000000, 108.000000)">
                        <polygon id="Path" fill="#EC8FBF" points="397.348081 410.288461 146.578661 516.495909 676.589402 516.495909 676.589402 414.328629"></polygon>
                        <polygon id="Path" fill="#92AFDD" points="383.4432 471.503128 350.516922 466.667169 338.237287 502.049247 338.779035 504.008117 354.248968 504.620263 352.503334 508.048285 349.493619 510.986589 628.855329 512.272097"></polygon>
                        <polygon id="Path" fill="#92AFDD" points="391.509235 442.487376 357.860626 451.363503 398.371384 459.443839 555.839652 459.443839 581.963975 436.916841 547.472646 439.120569"></polygon>
                        <path d="M176.314641,495.009561 L170.295212,506.640347 C170.295212,506.640347 166.984526,508.721646 165.78064,508.476787 C164.576754,508.231929 163.433062,505.966986 163.252479,506.273059 C163.071897,506.579133 176.435029,495.009561 176.435029,495.009561 L176.314641,495.009561 Z" id="Path" fill="#CEE251"></path>
                        <path d="M383.322811,416.226283 L168.368994,507.252494 C168.368994,507.252494 171.438903,518.883281 208.69917,505.966986 C245.959437,493.050691 322.045022,455.893388 335.769321,455.893388 C349.493619,455.893388 352.683917,434.468254 369.598513,434.957972 C386.513109,435.447689 396.806333,439.426642 404.571396,436.427124 C412.33646,433.427605 434.668542,424.18419 398.070413,418.062723 C392.953898,417.144503 388.07816,416.471142 383.322811,416.103854 L383.322811,416.226283 Z" id="Path" fill="#FF0084" opacity="0.13"></path>
                        <path d="M376.701439,467.524175 L350.516922,466.667169 L340.705252,498.009079 L619.76599,496.233854 C619.76599,496.233854 600.383428,464.279797 598.336823,465.62652 L595.266914,465.62652 L601.828091,475.053579 L371.825701,473.278354 L376.701439,467.524175 Z" id="Path" fill="#C9D3E7"></path>
                        <polygon id="Path" fill="#627693" points="340.705252 498.009079 340.705252 499.906734 620.006768 498.80487 619.76599 496.233854"></polygon>
                        <path d="M353.28586,499.906734 C352.472619,501.619149 352.119563,503.519955 352.262557,505.416054 C352.563528,508.782861 352.804305,510.190798 352.804305,510.190798 L632.226209,512.272097 C632.42628,511.015174 632.42628,509.73371 632.226209,508.476787 C632.086035,507.094485 631.610291,505.769269 630.84174,504.620263 L620.127156,497.519362 L620.127156,498.80487 L353.28586,499.906734 Z" id="Path" fill="#C9D3E7"></path>
                        <path d="M248.126431,276.105909 L246.862351,271.269951 C246.862351,271.269951 247.223517,268.882579 243.973025,270.106872 C240.722533,271.331165 228.322509,276.228339 226.817652,280.268507 C225.946084,282.573612 225.946084,285.125517 226.817652,287.430623 L248.126431,276.105909 Z" id="Path" fill="#DBEB6C"></path>
                        <path d="M321.623662,85.9119375 C321.623662,85.9119375 312.835295,89.6460322 308.621695,87.2586602 C304.408094,84.8712882 298.388665,72.56714 278.524549,80.4638321 C258.660432,88.3605242 257.396352,91.2376136 251.256534,90.8091109 C245.116717,90.3806082 241.625448,103.052044 241.204088,104.459982 C240.782728,105.867919 251.376923,304.876803 256.674021,315.895443 C261.971118,326.914084 295.017785,383.231578 309.825581,371.72322 C324.633377,360.214863 336.130486,311.671631 349.252842,277.207773 C362.375198,242.743916 383.02184,229.95005 383.02184,229.95005 C383.02184,229.95005 405.895671,274.085825 410.289854,279.350287 C414.684037,284.614748 420.583078,284.553534 422.328713,289.450707 C424.529955,296.099005 428.536866,301.977802 433.886017,306.40717 C438.460783,308.855757 440.687972,307.202961 441.350109,306.40717 C442.012246,305.611379 440.146223,283.512884 453.870522,277.207773 C462.251611,273.625905 471.841958,274.568993 479.392901,279.717575 C481.357734,273.923566 480.719424,267.54418 477.647267,262.271395 C474.270148,257.2779 469.454486,253.471271 463.862774,251.375184 C463.862774,251.375184 467.354043,238.703748 451.46275,225.114091 C435.571457,211.524435 431.056885,206.749691 427.926782,179.32552 C424.796679,151.901349 417.693752,139.229913 402.52479,131.700509 C387.355829,124.171105 321.864439,85.8507228 321.864439,85.8507228 L321.623662,85.9119375 Z" id="Path" fill="url(#linearGradient-1)"></path>
                        <path d="M379.229599,232.521066 C380.445959,231.51772 381.711672,230.577883 383.02184,229.705192 C383.02184,229.705192 405.895671,273.840967 410.289854,279.105428 C414.684037,284.36989 420.583078,284.308675 422.328713,289.205848 C424.529955,295.854147 428.536866,301.732943 433.886017,306.162311 C438.460783,308.610898 440.687972,306.958102 441.350109,306.162311 C437.266164,304.803603 433.582341,302.425354 430.635525,299.245054 C427.746199,295.143671 429.913193,272.677888 429.913193,272.677888 L420.402495,283.206811 C402.885956,273.657323 424.67629,257.374221 433.886017,252.599477 C420.041329,252.599477 415.466563,261.353175 409.8083,272.677888 C409.8083,272.677888 391.750012,220.278133 390.967486,219.359913 C390.184961,218.441693 379.590765,228.664542 379.590765,228.664542 L379.229599,232.521066 Z" id="Path" fill="#3B1993" opacity="0.42"></path>
                        <path d="M250.052649,254.680776 C252.400226,286.634832 254.928386,312.038919 256.674021,315.895443 C258.419655,319.751967 262.151701,326.057078 267.268216,334.259844 C283.719224,344.809568 301.974347,352.119109 321.081913,355.807407 C330.01537,334.352983 337.870825,312.45069 344.617881,290.185283 C343.955744,289.328278 343.654773,288.83856 343.654773,288.83856 L331.194554,284.186246 C332.986658,287.443112 333.723844,291.19152 333.301355,294.898812 C332.157663,300.102059 341.668361,303.224007 337.274178,307.998751 C332.879995,312.773495 290.924573,319.017391 287.914858,312.467422 C284.905144,305.917453 301.759546,291.776864 292.248847,278.493282 C282.738149,265.209699 267.508993,269.494725 258.419655,257.741509 C256.235032,255.477911 253.154573,254.351049 250.052649,254.680776 L250.052649,254.680776 Z" id="Path" fill="#3B1993"></path>
                        <path d="M354.369357,265.332128 C360.72652,251.134367 370.599408,238.858267 383.02184,229.705192 L411.553934,198.485711 L395.662641,208.524917 L406.918974,181.223175 L383.683977,224.073442 L384.406309,189.303511 C384.406309,189.303511 374.47425,230.133694 362.796558,235.520585 C351.118865,240.907476 341.307195,234.479936 343.47419,246.784084 C345.849669,253.755413 349.55182,260.182796 354.369357,265.699416 L354.369357,265.332128 Z" id="Path" fill="url(#linearGradient-2)"></path>
                        <path d="M471.025895,276.044695 C473.911367,276.845682 476.654027,278.105965 479.152124,279.77879 C481.116957,273.98478 480.478646,267.605394 477.40649,262.332609 C474.029371,257.339115 469.213709,253.532485 463.621997,251.436398 C463.621997,251.436398 467.113266,238.764962 451.221973,225.175306 C435.33068,211.58565 430.816108,206.810906 427.686005,179.386735 C424.555901,151.962564 417.452975,139.291128 402.284013,131.761723 C400.658767,130.904718 398.31119,129.741639 395.421864,128.150058 L390.124766,137.271044 C390.124766,137.271044 412.276266,138.00562 419.619969,170.204535 C426.963673,202.40345 428.46853,208.096414 428.46853,208.096414 L410.831603,208.096414 C410.831603,208.096414 449.235561,223.094007 453.810327,234.54115 C458.385093,245.988293 457.000625,249.23267 457.000625,249.23267 L433.765628,255.354137 C433.765628,255.354137 467.534626,249.23267 469.882203,262.883541 C470.591728,267.344288 471.073927,271.839367 471.326866,276.350768 L471.025895,276.044695 Z" id="Path" fill="#4466C6"></path>
                        <path d="M321.623662,85.9119375 C321.623662,85.9119375 312.835295,89.6460322 308.621695,87.2586602 C304.408094,84.8712882 298.388665,72.56714 278.524549,80.4638321 C258.660432,88.3605242 257.396352,91.2376136 251.256534,90.8091109 C245.116717,90.3806082 241.625448,103.052044 241.204088,104.459982 C253.93112,98.6820332 266.974738,93.6541096 280.270183,89.4011736 C295.439145,85.0549322 306.695477,94.5432056 307.417809,103.90905 C308.14014,113.274894 311.390632,129.802854 311.390632,129.802854 C311.390632,129.802854 311.390632,102.501112 314.761513,98.2773003 C318.132393,94.0534883 337.815926,98.2773003 337.815926,98.2773003 C337.815926,98.2773003 338.357675,97.6651537 339.260589,96.4408603 L321.623662,86.2180108 L321.623662,85.9119375 Z" id="Path" fill="#4466C6"></path>
                        <path d="M426.421924,55.0597451 L434.728737,54.1415251 C435.213321,68.575653 430.432293,82.6822053 421.30541,93.747415 L426.421924,55.0597451 Z" id="Path" fill="#1B346D"></path>
                        <path d="M290.021659,141.311212 C290.021659,141.311212 300.254688,174.673205 297.666334,180.121311 C295.077979,185.569416 290.202241,188.875008 291.225544,194.01704 C292.248847,199.159072 299.833328,216.972541 299.894242,220.829065 C299.953717,224.685589 296.221671,226.27717 294.235259,226.950531 C292.515555,227.155163 290.778253,227.155163 289.05855,226.950531 C286.148584,230.025133 283.749633,233.560509 281.955623,237.41824 C280.270183,242.192984 282.437178,248.742953 280.691543,251.252754 C278.945909,253.762556 282.858538,263.495688 274.672114,270.045657 C266.48569,276.595627 251.376923,269.188652 245.658465,272.188171 C238.339819,277.332392 231.453997,283.085946 225.072017,289.389492 L160.904902,219.298698 L166.141806,212.197797 L190.520494,133.475734 L236.569127,111.622098 L284.724561,129.129493 L290.021659,141.311212 Z" id="Path" fill="url(#linearGradient-3)"></path>
                        <path d="M290.021659,141.311212 C290.021659,141.311212 300.254688,174.673205 297.666334,180.121311 C295.077979,185.569416 290.202241,188.875008 291.225544,194.01704 C292.248847,199.159072 299.833328,216.972541 299.893522,220.829065 C299.953717,224.685589 296.221671,226.27717 294.235259,226.950531 C292.515555,227.155163 290.778253,227.155163 289.05855,226.950531 C289.05855,226.950531 280.691543,231.602846 278.945909,237.112166 C277.200274,242.621486 280.450766,245.55979 278.945909,248.375665 C277.441052,251.19154 265.522582,248.559309 265.522582,248.559309 C265.522582,248.559309 277.56144,252.293404 278.223577,257.313007 C278.456189,260.561623 278.067805,263.825304 277.079886,266.923709 C281.955623,260.802243 279.24688,252.90555 280.691543,250.763037 C282.136206,248.620524 280.270183,241.703266 281.955623,236.928522 C283.749633,233.070792 286.148584,229.535416 289.05855,226.460814 C289.05855,226.460814 295.619728,225.236521 297.365362,220.76785 C299.110997,216.299179 286.590584,194.506758 285.326504,190.160516 C284.062424,185.814275 290.262436,182.814756 293.452733,176.019928 C296.643031,169.2251 276.839109,134.883672 276.839109,134.883672 C279.998705,134.002966 283.25469,133.52994 286.53039,133.475734 L290.021659,141.311212 Z" id="Path" fill="#F7ADB3"></path>
                        <path d="M169.211714,228.052395 L165.600057,224.195871 C164.817531,222.053358 163.854422,219.543557 162.951508,216.850111 L166.382583,212.197797 L171.559292,195.547407 C190.038939,196.89413 184.260287,187.528286 184.260287,187.528286 C184.260287,187.528286 184.86223,195.363763 186.186505,203.076811 C188.38502,210.603056 191.414007,217.852107 195.215649,224.685589 C195.215649,224.685589 186.12631,215.074886 182.695236,215.503389 C179.264161,215.931891 173.906869,221.624855 173.906869,221.624855 L169.211714,228.052395 Z" id="Path" fill="#E5A1A9"></path>
                        <path d="M273.107063,270.47416 C264.559473,275.126475 250.895369,268.821364 245.417688,271.759668 C238.099042,276.903889 231.213219,282.657444 224.83124,288.96099 L210.264222,273.045176 C216.283651,267.413427 219.293365,260.496169 215.741902,253.211624 C211.126813,244.547023 207.356729,235.443856 204.48557,226.032311 C204.48557,226.032311 222.002109,256.639645 236.870099,263.618117 C248.429853,267.983317 260.655791,270.242012 272.986674,270.290516 L273.107063,270.47416 Z" id="Path" fill="#E5A1A9"></path>
                        <path d="M253.483723,135.067316 C253.483723,135.067316 284.122618,150.432197 295.619728,146.514458 C307.116838,142.59672 306.876449,124.660822 306.876449,124.660822 C306.876449,124.660822 274.310948,95.1553523 236.508933,92.9516243 C198.706918,90.7478962 198.104975,106.418851 198.104975,106.418851 C198.104975,106.418851 175.291338,105.867919 166.864137,136.291609 C158.436936,166.715299 166.502971,211.463221 166.502971,211.463221 C166.502971,211.463221 180.64863,218.564122 182.213681,209.504351 C183.778733,200.44458 179.926298,196.404412 182.213681,178.897017 C184.501065,161.389623 208.939947,165.797079 214.778793,181.406819 C220.61764,197.016559 217.246759,211.095933 221.941914,210.912289 C226.637069,210.728645 232.716693,204.301104 232.596304,187.956788 C232.475915,171.612472 231.151641,165.062503 233.619607,164.021853 C241.078271,160.688313 245.418322,152.688624 244.213802,144.494374 C243.190499,131.027147 253.483723,134.822457 253.483723,134.822457 L253.483723,135.067316 Z" id="Path" fill="#3B1993"></path>
                        <path d="M296.101282,116.335627 C278.574716,103.319214 257.973077,95.2514414 236.388544,92.9516243 C202.739935,91.0539696 198.646723,103.174474 198.104975,105.867919 C199.850609,108.867438 206.712758,119.029073 206.712758,119.029073 C206.712758,119.029073 223.1458,109.908087 249.872066,120.43701 C274.371143,130.108927 294.175065,132.679943 296.101282,116.335627 L296.101282,116.335627 Z" id="Path" fill="url(#linearGradient-4)"></path>
                        <path d="M194.6739,106.724924 C187.932139,107.888003 173.184538,112.846391 166.743748,136.291609 C160.724319,157.043381 162.891314,184.467552 164.697143,199.832434 C171.706457,193.341487 177.785184,185.882151 182.75543,177.672724 C183.268961,175.208683 184.482979,172.952349 186.246699,171.183969 C190.53817,162.768298 192.768342,153.423394 192.747683,143.943442 C192.025351,113.336109 204.304987,121.35523 204.304987,121.35523 C202.196089,115.8744 198.999555,110.894131 194.914677,106.724924 L194.6739,106.724924 Z" id="Path" fill="url(#linearGradient-5)"></path>
                        <path d="M202.739935,173.387697 C198.104975,158.451319 156.450524,168.735383 188.654471,203.995031 C198.827306,215.074886 202.920518,213.483305 206.712758,210.545001 C210.504999,207.606697 202.980712,173.8162 202.980712,173.8162 L202.739935,173.387697 Z" id="Path" fill="#F7ADB3"></path>
                        <path d="M202.920518,174.489561 C199.568195,171.027234 194.71849,169.529222 190.038939,170.510608 C185.891641,171.41058 182.313319,174.055041 180.190852,177.788568 C178.068386,181.522095 177.60044,185.995224 178.902995,190.099302 C167.646663,166.286796 198.706918,160.655047 202.980712,173.387697 L202.920518,174.489561 Z M182.815624,196.649271 C183.959316,197.81235 184.260287,198.363282 184.200093,198.485711 L182.815624,196.649271 Z" id="Shape" fill="#E5A1A9"></path>
                        <path d="M224.83124,288.96099 L166.141806,212.197797 C163.720209,213.969335 161.673238,216.217539 160.122376,218.808981 C158.637623,220.573989 157.585545,222.671857 157.052467,224.930447 C154.521192,224.222083 151.822271,224.48348 149.467987,225.665023 C146.819438,227.562678 147.000021,228.419683 147.000021,228.419683 C140.826683,225.724396 134.444308,223.554049 127.91843,221.930929 C125.691241,222.420646 66.700835,235.398156 31.6075628,330.586964 C10.0970289,390.082783 -0.393134263,453.115221 0.667696635,516.495909 L155.246639,516.495909 L173.003955,500.64131 L259.924513,422.531394 L262.753644,411.818827 L265.522582,401.106261 L269.736182,406.493151 C272.161969,410.126358 275.197987,413.296726 278.705132,415.858995 C284.182812,419.776734 322.887742,403.616062 322.887742,403.616062 C322.887742,403.616062 344.136327,402.269339 348.169345,396.576375 C350.625213,393.040178 352.477074,389.108112 353.647025,384.945588 L282.376983,317.609454 C282.376983,317.609454 282.677955,294.898812 271.120651,286.634832 C259.563347,278.370852 247.042934,271.453595 247.042934,271.453595 L224.83124,288.96099 Z" id="Path" fill="url(#linearGradient-6)"></path>
                        <path d="M247.464294,433.794893 L259.984707,422.531394 L262.813839,411.818827 L265.522582,401.106261 L266.305108,402.024481 C270.277931,386.108667 273.046868,370.131639 273.046868,370.131639 C273.046868,370.131639 266.06433,394.617506 254.085666,405.636146 C242.107002,416.654786 234.703104,385.312876 234.703104,385.312876 C234.703104,385.312876 227.359401,409.798743 211.468107,404.166994 C195.576814,398.535245 173.846675,348.706505 173.846675,348.706505 L199.30886,407.044083 L200.873912,411.757613 L209.96325,416.777215 C209.96325,416.777215 234.040967,431.713594 247.584683,433.794893 L247.464294,433.794893 Z" id="Path" fill="#C98000"></path>
                        <path d="M341.909138,400.432899 L341.909138,400.432899 C341.909138,400.432899 344.497493,390.638552 346.664487,378.456834 L282.376983,317.242166 C282.376983,317.242166 282.677955,294.531524 271.120651,286.267544 C259.563347,278.003564 247.042934,271.086307 247.042934,271.086307 L234.281744,281.309156 L246.320603,277.024129 C246.320603,277.024129 269.796376,284.737178 273.468228,295.082456 C275.787904,302.672614 277.163024,310.5285 277.56144,318.466459 L276.357554,328.138377 L281.895429,319.996826 L341.909138,400.432899 Z" id="Path" fill="#FFAD1D"></path>
                        <path d="M158.015576,287.491838 C166.182315,297.318218 170.773565,309.704244 171.017543,322.567842 C171.739875,344.727552 170.295212,344.05419 170.295212,344.05419 C170.295212,344.05419 164.155394,336.402357 151.153427,322.01691 C141.43788,312.283292 129.777443,304.788473 116.963069,300.040844 C131.242412,311.914566 144.183003,325.361942 155.54761,340.136452 C174.508812,364.622319 185.042813,404.90157 185.042813,404.90157 C176.697671,403.425309 168.130349,405.653582 161.506845,411.023037 C150.06993,420.388881 148.805849,430.550516 147.601964,429.387437 C146.398078,428.224358 176.675807,411.512754 185.584562,416.287498 C194.493317,421.062242 198.646723,437.467773 198.646723,437.467773 L210.204027,415.675351 C205.509189,414.549952 201.530559,411.398039 199.30886,407.044083 C195.93798,399.759538 174.027258,348.706505 174.027258,348.706505 C174.027258,348.706505 180.708824,338.728514 180.046687,316.079087 C179.496718,302.749163 170.66247,291.254565 158.07577,287.491838 L158.015576,287.491838 Z" id="Path" fill="#FFAD1D"></path>
                        <path d="M173.666092,221.930929 L166.141806,212.197797 C163.720209,213.969335 161.673238,216.217539 160.122376,218.808981 C158.637623,220.573989 157.585545,222.671857 157.052467,224.930447 C154.521192,224.222083 151.822271,224.48348 149.467987,225.665023 C146.819438,227.562678 147.000021,228.419683 147.000021,228.419683 C140.826683,225.724396 134.444308,223.554049 127.91843,221.930929 C125.691241,222.420646 66.700835,235.398156 31.6075628,330.586964 C10.0970289,390.082783 -0.393134263,453.115221 0.667696635,516.495909 L9.39586898,516.495909 C12.3453893,497.396933 15.4152982,474.074144 19.1473443,445.670538 C39.6134036,283.206811 110.161114,234.357506 125.450464,231.051914 C140.739814,227.746322 151.634981,241.88691 151.634981,241.88691 C151.634981,241.88691 148.625267,235.765444 151.634981,233.378072 C154.160981,232.163234 157.050828,231.987782 159.701016,232.888354 C159.701016,232.888354 159.701016,231.970134 165.720445,227.134175 C171.739875,222.298217 173.967063,221.930929 173.967063,221.930929 L173.666092,221.930929 Z" id="Path" fill="#FFAD1D"></path>
                        <path d="M265.522582,401.106261 L269.736182,406.493151 C272.161969,410.126358 275.197987,413.296726 278.705132,415.858995 C281.502167,416.784889 284.51588,416.784889 287.312915,415.858995 C278.705132,407.533801 276.538137,391.985275 274.371143,360.092433 C272.443821,339.470524 265.560202,319.646836 254.326443,302.367002 C260.169101,318.103179 264.660332,334.324488 267.749771,350.849019 C269.241796,367.626863 268.492591,384.532915 265.522582,401.106261 Z" id="Path" fill="url(#linearGradient-7)"></path>
                        <path d="M20.3512301,516.495909 L155.246639,516.495909 L164.93792,507.742211 C157.073644,503.027392 149.745679,497.443386 143.087392,491.091822 C140.137871,487.480156 136.46602,481.787192 136.46602,481.787192 C136.46602,481.787192 129.363093,477.991883 108.957228,449.404633 C88.551363,420.817383 71.5765727,360.643365 60.3202401,356.297124 C49.0639075,351.950883 44.850307,359.908789 30.825037,416.471142 C23.5204112,449.28502 20.0053794,482.853544 20.3512301,516.495909 Z" id="Path" fill="url(#linearGradient-8)"></path>
                        <path d="M226.757458,287.430623 C228.161846,289.365368 229.409937,291.412542 230.489504,293.55209 C231.005494,294.676023 231.350534,295.873173 231.512807,297.10254 C232.249298,292.387103 232.551579,287.612072 232.415721,282.839523 L232.415721,282.839523 L232.415721,282.227376 C230.308921,284.186246 228.262315,285.961471 226.93804,287.246979 L226.757458,287.430623 Z" id="Path" fill="#C98000"></path>
                        <path d="M210.38461,415.736566 C210.38461,415.736566 276.598331,421.858033 308.922666,406.493151 C341.247001,391.12827 346.544099,394.250218 350.095562,389.842762 C353.647025,385.435306 359.365483,385.680164 359.60626,381.701211 C359.847037,377.722258 371.645119,338.300012 378.447074,335.055634 C389.74983,329.993233 401.447983,325.898068 413.419957,322.812701 C420.253504,324.3749 426.971467,326.420361 433.524851,328.934168 L445.563709,335.851425 C445.563709,335.851425 447.610315,341.972892 440.025834,342.585038 C436.544053,342.746279 433.08062,341.987015 429.973388,340.38131 C429.973388,340.38131 435.210291,356.419553 435.210291,358.072349 C434.116031,363.832797 432.252836,369.414156 429.672416,374.661524 L428.107365,374.661524 C425.910502,379.961713 423.166302,385.009628 419.920941,389.720332 C416.604709,392.628201 412.843057,394.964807 408.784997,396.63759 C407.45072,397.127581 406.082569,397.516339 404.691785,397.800668 C404.691785,397.800668 395.060698,416.165069 387.355829,419.531875 C379.650959,422.898682 302.722654,462.87186 262.573061,475.359652 C222.423469,487.847444 185.042813,506.395489 174.508812,507.252494 C163.974811,508.109499 162.469954,502.967467 161.506845,492.560974 C160.543736,482.15448 174.087452,456.627964 189.136025,437.95749 C195.313046,429.561286 202.445515,421.938051 210.38461,415.246849 L210.38461,415.736566 Z" id="Path" fill="url(#linearGradient-9)"></path>
                        <path d="M403.608288,400.371685 C400.779156,405.268858 393.435452,417.511791 387.355829,420.021593 C379.711154,423.26597 302.722654,463.361577 262.573061,475.84937 C222.423469,488.337162 185.042813,506.885206 174.508812,507.742211 C163.974811,508.599217 162.469954,503.457185 161.506845,493.050691 C161.976022,486.247674 163.885649,479.628174 167.104914,473.645642 C168.229127,478.820734 171.785862,483.101646 176.615612,485.092784 C193.289431,491.581539 364.782969,426.081845 364.782969,426.081845 C362.386135,421.668425 360.507244,416.984029 359.1849,412.124901 C358.409752,407.470466 358.974154,402.687387 360.810146,398.351601 C360.473161,405.911639 362.588095,413.37486 366.829575,419.59309 C373.450947,426.816421 399.816047,406.615581 403.487899,400.432899 L403.608288,400.371685 Z" id="Path" fill="url(#linearGradient-10)"></path>
                        <path d="M210.38461,415.736566 C210.38461,415.736566 276.598331,421.858033 308.922666,406.493151 C341.247001,391.12827 346.544099,394.250218 350.095562,389.842762 C353.647025,385.435306 359.365483,385.680164 359.60626,381.701211 C359.847037,377.722258 371.645119,338.300012 378.447074,335.055634 C389.74983,329.993233 401.447983,325.898068 413.419957,322.812701 C417.858638,323.52654 422.214843,324.695581 426.421924,326.301937 L413.299569,324.893999 C413.299569,324.893999 383.202423,334.137414 376.219885,343.870546 C369.237347,353.603679 362.495586,395.168438 362.495586,395.168438 C362.495586,395.168438 360.02762,389.536688 356.957711,391.434343 C353.887802,393.331998 353.28586,398.780103 350.938282,397.55581 C348.590705,396.331516 327.522703,412.24733 296.763419,419.348231 C266.004136,426.449133 196.35934,430.305657 196.35934,430.305657 C200.558639,425.031459 205.300855,420.229377 210.504999,415.981425 L210.38461,415.736566 Z" id="Path" fill="#F6C5CE"></path>
                        <path d="M433.524851,328.138377 L445.142349,334.749561 C444.750708,335.895984 443.74124,336.707698 442.553995,336.83086 C438.58009,336.684406 434.866061,334.784738 432.381159,331.627613 C432.348057,330.364102 432.752899,329.128987 433.524851,328.138377 L433.524851,328.138377 Z" id="Path" fill="#E5A1A9"></path>
                        <path d="M406.196642,397.923098 L404.691785,398.290386 C406.903537,395.163822 408.685658,391.745108 409.988883,388.128751 C410.860662,385.742267 412.334611,383.631091 414.262677,382.007284 C414.079505,381.080822 413.796907,380.1776 413.419957,379.313839 C412.769041,377.628373 411.663138,376.164206 410.22966,375.090027 C411.971091,375.946302 413.403205,377.33844 414.322872,379.06898 C414.322872,379.9872 414.86462,380.721776 414.985009,381.272708 L414.985009,381.272708 C415.162313,381.223214 415.349454,381.223214 415.526758,381.272708 C415.79245,379.836559 415.79245,378.362616 415.526758,376.926467 C415.392466,375.92298 415.043139,374.96172 414.503455,374.110592 C415.734505,375.332251 416.555895,376.917205 416.851032,378.640478 C416.858916,379.803352 416.612172,380.953432 416.1287,382.007284 L416.1287,382.374572 C417.390815,382.475963 418.658827,382.475963 419.920941,382.374572 C420.94077,382.257011 421.925042,381.923358 422.810267,381.395138 C421.633415,382.613742 420.035036,383.316649 418.355889,383.354007 L415.526758,383.354007 C414.744232,384.394656 413.239374,385.557735 413.239374,386.108667 C413.239374,386.659599 417.332586,388.863327 417.332586,388.863327 C416.3699,388.854515 415.414795,388.689189 414.503455,388.37361 C413.911713,388.150309 413.376861,387.794669 412.938403,387.33296 C412.336564,389.964055 411.071052,392.3903 409.266551,394.372647 C408.114485,395.411571 407.084348,396.582417 406.196642,397.861883 L406.196642,397.923098 Z" id="Path" fill="#E5A1A9"></path>
                        <path d="M323.369296,400.004397 C314.187091,398.809115 304.871495,400.678039 296.823614,405.330073 C292.923694,407.680603 289.255029,410.406996 285.868252,413.471623 C293.79282,412.061041 301.529463,409.719193 308.922666,406.493151 C314.520735,403.799706 319.336279,401.657193 323.369296,400.004397 L323.369296,400.004397 Z" id="Path" fill="#FA7648"></path>
                        <path d="M426.78309,66.0783852 C426.929474,88.2765376 420.420262,109.992939 408.12286,128.333702 C387.355829,160.226544 373.992696,178.101227 358.522763,168.429309 C353.684112,165.138235 348.567555,162.290765 343.233413,159.920471 L343.89555,159.491968 C343.89555,159.491968 323.429491,130.047713 321.142108,115.968339 C319.994518,110.116048 319.310123,104.179614 319.095502,98.2160857 L317.711033,89.4011736 C317.048896,82.9736335 317.229479,74.8320827 321.382885,72.199852 C328.546005,67.5475373 333.843103,80.5862614 333.843103,80.5862614 L354.610134,39.3275755 L409.146163,52.6723731 L426.78309,66.0783852 Z" id="Path" fill="url(#linearGradient-11)"></path>
                        <path d="M364.722775,170.877896 C364.722775,170.877896 352.683917,166.286796 341.728555,147.06539 C335.700777,137.274202 331.76328,126.304243 330.171251,114.866475 C328.437413,118.14012 326.156058,121.081583 323.429491,123.558958 C329.144326,136.129563 335.953346,148.155147 343.775161,159.491968 L343.113024,159.920471 C348.447166,162.290765 353.563724,165.138235 358.402374,168.429309 C360.238258,169.625815 362.280949,170.456742 364.421804,170.877896 L364.722775,170.877896 Z" id="Path" fill="#E5A1A9"></path>
                        <path d="M320.961525,114.866475 C319.903459,109.3759 319.279457,103.807973 319.095502,98.2160857 L317.711033,89.4011736 C317.048896,82.9736335 317.229479,74.8320827 321.382885,72.199852 C328.546005,67.5475373 333.843103,80.5862614 333.843103,80.5862614 L337.755732,73.0568573 L340.765447,76.056376 L334.324658,97.3590803 C334.324658,97.3590803 334.324658,75.3218 323.549879,77.2806694 C312.775101,79.2395388 321.443079,109.173511 324.091628,109.908087 C326.740177,110.642663 324.091628,113.397323 320.961525,114.866475 Z" id="Path" fill="#F7ADB3"></path>
                        <path d="M434.728737,54.1415251 C432.868247,58.698343 430.171692,62.853291 426.78309,66.3844586 C418.29537,70.2134419 408.763852,70.9274419 399.816047,68.4045426 C391.750012,65.2825946 371.163564,52.488729 366.769381,58.0592638 C362.375198,63.6297985 368.695598,82.5451308 364.181026,84.0142828 C359.666454,85.4834348 345.641184,83.2797068 341.427584,90.9927549 C337.213984,98.705803 335.408155,104.888484 333.542132,104.949824 C331.676109,105.010914 340.283892,82.6063455 328.786783,74.8320827 C326.738565,73.0673331 324.031585,72.3063781 321.382885,72.750784 C321.382885,72.750784 321.382885,22.493542 344.73827,10.3118231 C368.093655,-1.8698957 392.231566,-5.11427308 415.165592,16.0047872 C438.099617,37.1238475 434.728737,54.4475984 434.728737,54.4475984 L434.728737,54.1415251 Z" id="Path" fill="#1B346D"></path>
                        <path d="M332.579023,22.493542 C335.405077,17.3616979 339.571579,13.1245674 344.617881,10.2506085 C367.852878,-1.99232504 392.111178,-5.17548775 415.045203,15.9435725 C424.302661,23.6322295 430.955408,34.0802478 434.066599,45.8163303 C426.241342,56.8349704 406.136448,57.5695465 390.786903,48.3261317 C370.68201,36.0831982 363.037335,45.8163303 354.248968,60.5690652 C345.460602,75.3218 328.967366,73.3629307 326.800371,65.5274532 C325.536291,60.8139238 329.268337,38.8990729 332.39844,22.2486833 L332.579023,22.493542 Z" id="Path" fill="url(#linearGradient-12)"></path>
                        <path d="M322.827548,174.673205 L343.775161,159.491968 C343.775161,159.491968 323.309102,130.047713 321.021719,115.968339 C319.874129,110.116048 319.189735,104.179614 318.975113,98.2160857 L317.711033,89.4011736 C312.431511,91.6769638 308.150578,95.8345566 305.672175,101.093175 C302.903237,108.928652 310.668301,141.739714 313.437238,150.921914 C316.209454,158.917887 319.383872,166.76371 322.947936,174.428347 L322.827548,174.673205 Z" id="Path" fill="#243D83"></path>
                        <path d="M357.0781,167.511089 L357.619849,187.344642 L364.722775,170.816681 C362.58192,170.395527 360.53923,169.564601 358.703346,168.368095 L357.0781,167.511089 Z" id="Path" fill="#243D83"></path>
                        <path d="M343.233413,159.920471 C348.05664,162.036316 352.689107,164.576156 357.0781,167.511089 L357.0781,176.387216 L350.095562,184.651196 C346.45717,184.122372 342.93491,182.962891 339.68195,181.223175 C337.036056,176.814426 334.760667,172.186506 332.879995,167.38866 L343.233413,159.920471 Z M359.666454,168.980241 L358.883929,168.980241 L359.666454,169.469959 L359.666454,168.980241 Z" id="Shape" fill="url(#linearGradient-13)"></path>
                        <path d="M339.68195,181.223175 C339.68195,181.223175 323.549879,240.234114 322.526576,263.434473 C322.784841,270.853143 324.019788,278.203134 326.198428,285.28811 L326.198428,285.28811 L326.198428,285.28811 L326.800371,285.28811 L326.800371,285.28811 L326.800371,285.28811 L326.800371,285.28811 L327.281925,285.28811 L327.281925,285.28811 L327.76348,285.28811 L327.76348,285.28811 L328.546005,285.28811 L328.546005,285.28811 L331.736303,285.28811 L331.736303,285.28811 L332.217857,285.28811 L332.217857,285.28811 L332.217857,285.28811 C332.217857,285.28811 332.217857,285.28811 332.217857,285.28811 C336.792624,287.92034 333.120772,295.817032 338.959618,301.326352 C344.798464,306.835673 343.775161,311.243129 341.909138,313.569286 C341.38491,314.336258 340.708175,314.982755 339.922727,315.466941 L339.922727,315.466941 L339.922727,315.466941 L339.922727,315.466941 L339.561561,315.466941 L339.561561,315.466941 L338.598452,315.466941 L338.598452,315.466941 L337.635344,315.466941 L337.635344,315.466941 L336.612041,315.466941 L336.612041,315.466941 L335.769321,315.466941 C344.979047,343.992976 356.415963,374.171807 359.546066,382.803075 C359.868459,382.288562 360.05504,381.698247 360.087815,381.089064 C362.012441,372.186361 364.608473,363.44763 367.852878,354.950401 C363.93208,331.661647 361.399299,308.153145 360.268397,284.553534 C360.268397,263.373259 353.165471,202.770738 350.878088,184.161479 L350.456728,184.651196 C346.694392,184.163918 343.046546,183.003348 339.68195,181.223175 Z" id="Path" fill="url(#linearGradient-14)"></path>
                        <path d="M337.755732,189.303511 C333.301355,206.259974 323.489685,245.498576 322.707159,263.434473 C322.906834,270.844809 324.081017,278.19462 326.198428,285.28811 L326.198428,285.28811 L326.198428,285.28811 L326.800371,285.28811 L326.800371,285.28811 L326.800371,285.28811 L326.800371,285.28811 L327.281925,285.28811 L327.281925,285.28811 L327.76348,285.28811 L327.76348,285.28811 L328.546005,285.28811 L328.546005,285.28811 L331.736303,285.28811 L331.736303,285.28811 L332.217857,285.28811 L332.217857,285.28811 L332.217857,285.28811 C332.217857,285.28811 332.217857,285.28811 332.217857,285.28811 C336.792624,287.92034 333.120772,295.817032 338.959618,301.326352 C344.798464,306.835673 343.775161,311.243129 341.909138,313.569286 C341.38491,314.336258 340.708175,314.982755 339.922727,315.466941 L339.922727,315.466941 L339.922727,315.466941 L339.922727,315.466941 L339.561561,315.466941 L339.561561,315.466941 L338.598452,315.466941 L338.598452,315.466941 L337.635344,315.466941 L337.635344,315.466941 L336.612041,315.466941 L336.612041,315.466941 L335.769321,315.466941 C344.979047,343.992976 356.415963,374.171807 359.546066,382.803075 C359.868459,382.288562 360.05504,381.698247 360.087815,381.089064 C362.012441,372.186361 364.608473,363.44763 367.852878,354.950401 C363.93208,331.661647 361.399299,308.153145 360.268397,284.553534 C360.268397,274.575543 358.76354,255.78264 356.837323,236.744878 C352.081974,245.070073 346.42371,251.681257 343.353801,244.947644 C337.334372,231.541632 337.695538,189.303511 337.695538,189.303511 L337.755732,189.303511 Z" id="Path" fill="url(#linearGradient-15)"></path>
                        <path d="M435.451068,306.896887 C433.354171,299.85002 433.890068,292.263875 436.955925,285.594183 C442.132635,274.820401 458.144316,262.026536 468.798706,266.923709 C479.453096,271.820883 479.152124,279.962434 479.152124,279.962434 L486.014274,301.81607 C492.540534,301.710589 499.029869,302.831232 505.156058,305.121662 C510.754128,308.427254 532.725044,320.608973 533.989124,322.261769 C535.253204,323.914565 533.447376,328.015948 530.798827,328.383236 C529.125257,328.670916 527.416077,328.670916 525.742506,328.383236 C532.725044,336.769645 533.026016,338.912158 524.11726,346.01306 L524.899786,351.644809 C526.008129,353.842077 526.585886,356.276215 526.585226,358.745711 C525.923089,361.194297 512.860928,367.438193 509.429853,367.438193 C503.410424,367.438193 498.534686,361.316727 493.418171,360.153648 C490.950205,359.480287 489.144377,360.153648 488.121074,357.827491 C487.552308,356.62087 487.876624,355.174765 488.9036,354.338255 C483.803304,349.888304 479.034854,345.059484 474.637552,339.891593 L472.530752,335.545352 C465.807104,334.495434 460.758979,328.745693 460.491894,321.833266 C451.561482,318.094101 443.208651,313.063423 435.691845,306.896887 L435.451068,306.896887 Z" id="Path" fill="url(#linearGradient-16)"></path>
                        <path d="M494.561863,360.459721 L493.418171,360.459721 C492.034824,360.248655 490.667246,359.941869 489.32496,359.541501 C489.372359,358.733262 489.576955,357.942615 489.926903,357.215344 C490.649234,355.868621 495.946332,357.643847 495.946332,357.643847 L495.284195,358.745711 C494.969771,359.371218 494.80479,360.063301 494.80264,360.765795 L494.561863,360.459721 Z" id="Path" fill="#E5A1A9"></path>
                        <path d="M521.709489,314.426291 C527.187169,317.609454 532.24349,320.547758 533.748347,321.710837 C530.919215,323.363633 523.27454,319.629538 521.709489,317.609454 C521.07974,316.645036 521.07974,315.39071 521.709489,314.426291 L521.709489,314.426291 Z" id="Path" fill="#E5A1A9"></path>
                        <path d="M466.390934,266.005489 C467.222936,266.136525 468.033172,266.383716 468.798706,266.740065 C479.573484,271.514809 479.152124,279.77879 479.152124,279.77879 L486.014274,301.632426 C492.540534,301.526945 499.029869,302.647588 505.156058,304.938018 L521.528906,314.365077 C514.940877,312.132964 508.522953,309.411793 502.326927,306.223526 C497.571578,303.040363 486.315245,303.958583 482.04145,303.530081 C477.767656,303.101578 463.200637,312.895925 463.200637,312.895925 C463.987047,309.036615 466.321612,305.686195 469.641426,303.65251 C473.099281,302.006148 476.842668,301.07004 480.656982,300.89785 L466.390934,266.005489 Z" id="Path" fill="#F6C5CE"></path>
                        <path d="M435.451068,306.896887 C433.632786,301.06123 433.632786,294.796647 435.451068,288.96099 C437.451054,296.002785 441.155644,302.422077 446.225846,307.631463 C450.357191,311.117267 454.83597,314.153734 459.588979,316.691234 C461.021687,313.169697 463.060028,309.935984 465.608409,307.141746 C468.173607,305.26805 471.308479,304.378877 474.456969,304.631945 C469.882887,308.525357 465.99484,313.183158 462.95986,318.405245 C461.530495,322.995344 462.983133,328.008346 466.631711,331.076681 C468.705636,332.274426 471.048652,332.90701 473.433666,332.913121 L477.707461,329.668744 C477.707461,329.668744 474.216192,335.79021 474.998718,337.993938 C475.710394,339.919478 476.534516,341.800076 477.466684,343.625688 C476.292865,342.517399 475.261399,341.262771 474.396775,339.891593 L472.289975,335.545352 C465.566327,334.495434 460.518202,328.745693 460.251117,321.833266 C451.320705,318.094101 442.967873,313.063423 435.451068,306.896887 L435.451068,306.896887 Z" id="Path" fill="#E5A1A9"></path>
                        <path d="M210.685582,310.692197 L216.343845,316.813663 C216.343845,316.813663 231.452612,318.466459 231.512807,315.956658 C231.512807,314.365077 231.211835,302.611861 230.971058,294.898812 L230.971058,294.898812 L230.971058,294.898812 L230.971058,294.898812 L230.971058,294.898812 L230.971058,294.898812 L230.971058,294.898812 L230.971058,294.898812 L230.971058,294.898812 L230.971058,294.898812 L230.971058,294.898812 L230.971058,294.898812 L230.971058,294.898812 L230.971058,294.898812 C229.891491,292.759264 228.6434,290.712091 227.239012,288.777346 L227.239012,288.777346 C226.09532,289.817995 225.493377,290.491356 225.493377,290.491356 L210.685582,310.692197 Z" id="Path" fill="#C98000"></path>
                        <path d="M216.343845,317.058522 C218.866491,336.144677 220.413558,355.351096 220.978806,374.60031 C221.640943,394.67872 220.978806,409.002953 220.557446,416.471142 C224.40988,416.471142 229.225424,416.83843 234.64291,416.960859 C234.64291,402.330554 234.64291,364.438675 234.64291,346.319133 C234.557011,336.404507 233.283547,326.537457 230.850669,316.936093 C226.060311,317.644407 221.194397,317.644407 216.404039,316.936093 L216.343845,317.058522 Z" id="Path" fill="url(#linearGradient-17)"></path>
                        <path d="M221.159388,403.860921 C221.159388,409.125382 220.738028,413.349194 220.557446,416.471142 C224.40988,416.471142 229.225424,416.83843 234.64291,416.960859 C234.64291,410.043602 234.64291,397.923098 234.64291,385.312876 C234.64291,385.312876 230.248727,399.637109 221.099194,403.677277 L221.159388,403.860921 Z" id="Path" fill="#BC7504"></path>
                        <path d="M349.794591,390.332479 C341.848944,386.720814 326.619788,380.90542 316.928507,381.884855 C305.672175,383.109148 300.013911,397.066092 298.448859,404.534282 C306.165384,400.455147 314.924369,398.874446 323.549879,400.004397 L323.549879,400.004397 C342.691664,392.168919 347.146042,393.454427 350.095562,390.21005 L349.794591,390.332479 Z" id="Path" fill="url(#linearGradient-18)"></path>
                        <path d="M340.645058,314.732365 C330.770163,317.1548 320.693691,318.630409 310.547912,319.139821 C295.439145,319.813182 290.683796,318.160386 290.262436,320.18047 C289.841076,322.200554 325.536291,371.478361 341.668361,393.638071 C346.483905,392.352563 348.349928,391.92406 350.035368,389.842762 C353.586831,385.068018 359.305289,385.680164 359.546066,381.701211 C360.133942,378.293732 360.979164,374.937393 362.074226,371.662005 C358.788727,366.998982 355.965858,362.016232 353.647025,356.786841 C347.870708,343.267256 343.493093,329.173239 340.584864,314.732365 L340.645058,314.732365 Z" id="Path" fill="url(#linearGradient-19)"></path>
                        <path d="M340.645058,314.732365 C340.645058,314.732365 338.538258,315.344511 335.107183,315.956658 C339.320784,329.179026 349.373231,359.725145 353.887802,369.152204 C355.529833,372.60687 357.681554,375.785947 360.268397,378.579263 C360.629563,376.742823 361.351895,374.416666 362.13442,371.662005 C358.848922,366.998982 356.026053,362.016232 353.70722,356.786841 C347.930903,343.267256 343.553287,329.173239 340.645058,314.732365 L340.645058,314.732365 Z" id="Path" fill="#F6C5CE"></path>
                        <path d="M300.074105,319.323465 C293.151762,319.323465 290.683796,318.711318 290.32263,320.18047 C289.961464,321.649622 325.596485,371.478361 341.728555,393.638071 C346.544099,392.352563 348.410122,391.92406 350.095562,389.842762 C353.647025,385.068018 359.365483,385.680164 359.60626,381.701211 C359.723484,380.640617 359.945313,379.594703 360.268397,378.579263 C359.008343,377.175386 357.822837,375.704143 356.716934,374.171807 C354.262747,379.759999 348.37177,382.919723 342.450887,381.82364 C333.963492,379.375054 310.788689,338.973373 300.314883,319.323465 L300.074105,319.323465 Z" id="Path" fill="url(#linearGradient-20)"></path>
                        <path d="M297.846917,197.81235 L312.293547,218.93141 L320.90133,241.09112 L323.068325,247.212586 C324.929738,248.521234 326.524175,250.184274 327.76348,252.10976 C328.231189,254.154445 329.158343,256.061139 330.472223,257.680295 C332.097469,259.271876 333.301355,258.782159 333.301355,261.047101 C333.301355,263.312044 326.679982,267.903144 327.281925,272.800317 C328.184813,276.593476 329.68931,280.21172 331.736303,283.512884 C332.026114,286.224739 330.762735,288.865706 328.485811,290.307712 C324.633377,292.817514 305.311009,273.534893 305.311009,273.534893 L304.287706,246.661654 L302.843043,209.932854 L297.846917,197.81235 Z" id="Path" fill="url(#linearGradient-21)"></path>
                        <path d="M331.736303,283.818958 C331.736303,280.023648 321.984828,274.085825 324.813959,270.841448 C327.643091,267.597071 335.287766,263.005971 331.736303,260.802243 C328.18484,258.598515 327.944063,257.006933 327.34212,252.90555 C326.740177,248.804168 318.012004,247.151372 318.012004,247.151372 L301.217797,191.201166 L317.410061,220.155703 L325.716874,186.610066 C325.716874,186.610066 321.081913,220.76785 322.887742,232.765925 C324.693571,244.764 322.887742,245.008858 324.272211,247.212586 C326.491635,249.32056 328.272439,251.86011 329.509114,254.680776 C330.893583,258.414871 336.130486,257.741509 334.565435,262.393824 C333.000383,267.046139 329.208143,271.39238 329.208143,273.718537 C329.208143,276.044695 331.916886,283.818958 331.435332,283.696528 L331.736303,283.818958 Z" id="Path" fill="#243D83"></path>
                        <path d="M290.32263,320.18047 C287.37311,319.323465 290.32263,317.487025 287.914858,312.100134 C285.507087,306.713243 283.340092,304.938018 284.905144,298.510478 C286.470195,292.082938 305.912952,298.510478 314.099375,293.490875 C322.285799,288.471272 328.425617,281.737659 332.940189,284.431104 C337.454761,287.12455 333.843103,294.960027 339.68195,300.469347 C345.520796,305.978667 344.497493,310.386123 342.63147,312.712281 C342.107242,313.479253 341.430507,314.12575 340.645058,314.609935 L340.645058,314.609935 C330.770163,317.032371 320.693691,318.50798 310.547912,319.017391 C295.439145,319.690753 290.683796,318.037957 290.262436,320.058041 L290.32263,320.18047 Z" id="Path" fill="url(#linearGradient-22)"></path>
                        <path d="M482.222033,318.466459 C482.222033,318.466459 483.004559,326.363152 484.750193,327.64866 C488.259017,329.964414 491.038263,333.258289 492.756034,337.136933 C493.949122,340.17503 494.895333,343.307465 495.585166,346.502777 C496.852396,344.918492 498.580232,343.782789 500.521098,343.2584 C503.293963,342.439217 506.191902,342.148661 509.068687,342.401394 L512.740539,338.177582 C511.035251,336.254997 510.14792,333.723954 510.272573,331.137896 C510.25623,328.587635 511.621084,326.235109 513.824036,325.016429 C513.824036,325.016429 498.474492,325.016429 495.765749,321.772051 C494.218079,319.213989 493.404914,316.266657 493.418171,313.263213 C491.572877,314.403325 489.529355,315.172245 487.398742,315.528155 C485.171553,315.528155 483.245336,309.406689 483.245336,309.406689 C482.814832,311.050714 483.076532,312.80278 483.967668,314.242647 C484.661349,315.576178 485.625676,316.74464 486.796799,317.670669 C485.03299,317.456004 483.427971,316.529605 482.342422,315.099653 C481.115773,313.736462 480.319034,312.030682 480.055039,310.202479 C479.442552,312.005047 479.617823,313.987992 480.536593,315.650585 L481.981256,318.221601 L482.222033,318.466459 Z" id="Path" fill="#E5A1A9"></path>
                        <path d="M508.286162,328.138377 L513.703648,325.322502 L526.464838,328.811738 C526.464838,328.811738 528.270667,333.280409 528.571638,333.03555 C525.775525,332.497759 523.019904,331.76138 520.32502,330.831822 C516.42327,329.480704 512.385254,328.577282 508.286162,328.138377 L508.286162,328.138377 Z" id="Path" fill="#E5A1A9"></path>
                        <path d="M509.67063,338.850944 C511.109615,337.424822 512.705232,336.171879 514.425979,335.116849 C515.88977,334.41758 517.454831,333.962839 519.06094,333.770126 C516.130077,335.602219 513.33374,337.648075 510.693933,339.891593 C508.346356,342.095321 509.67063,338.850944 509.67063,338.850944 Z" id="Path" fill="#E5A1A9"></path>
                        <polygon id="Path" fill="#E5A1A9" points="402.52479 359.235428 421.004438 367.989125 426.482119 367.193335 423.532598 369.519492"></polygon>
                        <path d="M387.957772,348.76772 C392.521671,347.418869 397.34775,347.271422 401.983042,348.339217 C408.301116,349.81941 414.761699,350.579077 421.245215,350.60416 L425.759787,348.584076 L425.759787,351.52238 C427.886843,351.954848 429.801077,353.122857 431.177273,354.827972 C432.983102,357.521417 427.986976,373.988163 427.986976,373.988163 C427.986976,373.988163 432.561742,355.929836 428.408336,354.093396 C424.25493,352.256956 404.330619,350.236872 402.043236,349.68594 C400.0297,348.594542 397.760137,348.086351 395.482058,348.216788 C392.171372,348.216788 388.017966,348.76772 388.017966,348.76772 L387.957772,348.76772 Z" id="Path" fill="#E5A1A9"></path>
                        <path d="M388.740298,336.279928 C392.631623,337.560592 396.790449,337.750912 400.779156,336.83086 C407.7015,335.361708 420.402495,333.15798 423.953958,334.810776 C426.528578,336.177542 428.629403,338.313979 429.973388,340.932242 C427.701482,337.689694 423.949709,335.862941 420.041329,336.096284 C412.75782,336.096284 402.404402,339.157017 396.62575,338.789729 C393.845121,338.829132 391.11063,338.06493 388.740298,336.586001 L388.740298,336.279928 Z" id="Path" fill="#E5A1A9"></path>
                        <path d="M522.792986,347.237353 C522.792986,347.237353 515.629865,354.521899 512.740539,354.521899 C510.566625,354.782801 508.362829,354.531456 506.29975,353.787323 C503.012859,352.900883 499.643616,352.367439 496.247303,352.195741 C499.522348,352.716047 502.731689,353.598695 505.818196,354.827972 C507.924312,355.957044 510.312337,356.425703 512.680345,356.174695 C516.25302,354.187216 519.586124,351.783678 522.612403,349.012578 C522.911531,348.469065 523.07676,347.859959 523.093957,347.237353 L522.792986,347.237353 Z" id="Path" fill="#E5A1A9"></path>
                        <path d="M523.27454,352.991532 C523.399702,354.545427 522.685057,356.045834 521.408517,356.909271 C517.509899,359.174464 513.490778,361.218089 509.369659,363.030737 C507.767117,363.49948 506.086295,363.624552 504.433727,363.398025 C504.433727,363.398025 505.87839,364.867177 510.453156,363.398025 C514.752869,361.730165 518.804402,359.464048 522.492015,356.664412 C523.394929,355.807407 522.492015,352.869103 522.492015,352.869103 L523.27454,352.991532 Z" id="Path" fill="#E5A1A9"></path>
                        <path d="M494.983223,340.38131 L495.585166,346.502777 C495.668205,348.681384 495.055826,350.828832 493.839531,352.624244 C492.342196,353.66603 490.525143,354.122559 488.723017,353.909752 L489.625931,355.072831 C489.625931,355.072831 494.321086,355.072831 495.64536,352.256956 C496.536061,349.747883 496.744028,347.040781 496.247303,344.421478 L494.983223,340.38131 Z" id="Path" fill="#E5A1A9"></path>
                        <path d="M403.608288,400.371685 C405.611584,400.209226 407.62442,400.209226 409.627717,400.371685 C421.449605,401.987789 433.124722,404.567102 444.540406,408.084733 C454.592853,412.24733 461.575391,418.980943 442.794772,426.449133 C424.014153,433.917322 381.878148,434.345825 370.561621,429.999584 C369.958038,429.762096 369.374268,429.475499 368.815987,429.142578 C378.627656,424.245405 385.55,420.878598 387.536412,419.960378 C393.555841,417.450577 401.080127,405.207643 403.788871,400.31047 L403.608288,400.371685 Z" id="Path" fill="url(#linearGradient-23)"></path>
                        <path d="M403.608288,400.371685 C405.611584,400.209226 407.62442,400.209226 409.627717,400.371685 C421.449605,401.987789 433.124722,404.567102 444.540406,408.084733 C449.656921,410.227246 453.930716,412.981906 454.472464,416.165069 C453.328773,418.246367 452.004499,420.388881 450.740418,422.286535 C448.25628,423.928379 445.589014,425.264069 442.794772,426.265489 C435.91665,428.585171 428.812907,430.144933 421.606381,430.917804 C418.286237,429.223484 415.601692,426.471936 413.961706,423.082326 C412.095683,416.103854 424.736484,414.573487 423.111238,409.49267 C422.027741,405.81979 409.266551,404.289423 401.742265,403.371203 L403.849065,399.820753 L403.608288,400.371685 Z" id="Path" fill="#F6C5CE"></path>
                        <path d="M163.192285,289.573136 C163.192285,289.573136 183.17679,304.631945 179.685521,324.343067 C178.654051,332.721388 176.632989,340.942673 173.666092,348.828934 C173.666092,348.828934 199.910803,411.206681 201.656438,412.24733 C203.402072,413.287979 208.27781,414.206199 210.986553,415.92021 C212.431216,415.92021 215.802096,416.348713 220.376863,416.593571 C220.858417,409.125382 221.46036,394.80115 220.798223,374.722739 C220.232975,355.473525 218.685908,336.267107 216.163262,317.180951 L217.367148,313.569286 C214.658405,303.040363 211.347719,293.796948 206.532175,291.287147 C194.435745,282.665778 183.060456,273.042744 172.5224,262.516253 C172.5224,262.516253 191.784574,296.918896 197.021477,325.261287 C202.258381,353.603679 200.211775,363.887743 200.211775,363.887743 C200.211775,363.887743 195.637009,318.037957 182.635042,305.244091 C177.059894,298.953192 170.488072,293.656272 163.192285,289.573136 L163.192285,289.573136 Z" id="Path" fill="url(#linearGradient-24)"></path>
                        <path d="M224.83124,288.96099 L166.141806,212.197797 C163.720209,213.969335 161.673238,216.217539 160.122376,218.808981 C158.637623,220.573989 157.585545,222.671857 157.052467,224.930447 C161.310495,237.848024 166.626218,250.379725 172.943761,262.393824 C181.250573,278.125994 207.495284,315.895443 207.495284,315.895443 L224.83124,288.96099 Z" id="Path" fill="#E89D00"></path>
                        <path d="M173.666092,221.930929 L166.141806,212.197797 C163.720209,213.969335 161.673238,216.217539 160.122376,218.808981 C158.637623,220.573989 157.585545,222.671857 157.052467,224.930447 C157.052467,224.930447 158.07577,228.052395 159.881599,232.888354 C159.881599,232.888354 159.881599,231.90892 165.901028,227.134175 C171.920458,222.359431 174.147646,221.930929 174.147646,221.930929 L173.666092,221.930929 Z" id="Path" fill="#FFAD1D"></path>
                        <path d="M205.32829,406.370722 L202.137992,412.124901 C192.196143,408.396321 181.224379,408.703214 171.499098,412.981906 C156.39033,420.327666 138.753403,448.731272 137.067962,456.689179 C136.157012,465.024807 136.0562,473.431452 136.766991,481.787192 L116.120349,488.520806 L104.201879,442.181302 C104.201879,442.181302 121.357252,460.545703 126.473767,453.383587 C131.590282,446.22147 151.875758,417.083289 169.99424,410.533319 C188.112722,403.98335 198.706918,409.309026 198.706918,409.309026 L199.670026,403.187559 L205.32829,406.370722 Z" id="Path" fill="url(#linearGradient-25)"></path>
                        <path d="M274.792503,319.568323 L274.792503,320.608973 C275.662103,333.720401 275.52122,346.880936 274.371143,359.970004 C273.171606,366.716058 272.587246,373.560353 272.625508,380.415703 C276.044062,371.944871 277.822238,362.882493 277.862412,353.726108 C278.344096,342.251841 277.311604,330.763675 274.792503,319.568323 L274.792503,319.568323 Z" id="Path" fill="#C98000"></path>
                        <polygon id="Path" fill="url(#linearGradient-26)" points="612.60287 291.532006 555.538681 284.798392 513.703648 467.646604 581.963975 436.916841"></polygon>
                        <path d="M529.594941,398.290386 L513.703648,467.646604 L581.963975,437.03927 L601.587314,343.686902 C589.127096,365.785397 569.262979,389.720332 539.948359,395.903014 C536.697867,396.51516 533.266793,397.43338 529.594941,398.412815 L529.594941,398.290386 Z" id="Path" fill="url(#linearGradient-27)"></path>
                        <polygon id="Path" fill="#C9D3E7" points="612.60287 291.532006 555.538681 284.798392 515.930837 457.668613 519.241523 457.36254 557.946453 287.675482 612.121315 293.796948"></polygon>
                        <path d="M522.792986,427.734641 L522.792986,427.734641 L436.59476,424.30662 L357.800431,446.588759 C357.800431,446.588759 496.247303,460.851776 514.847339,462.443357 L522.792986,427.734641 Z" id="Path" fill="#B7C3DD"></path>
                        <polygon id="Path" fill="#A1B0D1" points="516.773557 454.301807 521.047352 435.631333 453.087996 431.897238 425.037456 448.486413"></polygon>
                        <path d="M357.800431,446.588759 L357.800431,451.363503 L513.643454,467.646604 L526.645421,454.852739 L517.315305,451.424717 L514.787145,462.443357 C496.728858,460.851776 357.740237,446.588759 357.740237,446.588759 L357.800431,446.588759 Z" id="Path" fill="#C9D3E7"></path>
                        <polygon id="Path" fill="url(#linearGradient-28)" points="380.132514 468.932112 371.825701 473.278354 372.548033 490.479675 601.828091 491.030607 601.828091 475.053579 568.360065 467.401745"></polygon>
                        <path d="M474.155998,341.29953 L442.91516,341.29953 C442.058256,341.584248 441.167224,341.749 440.266612,341.789248 C437.89084,341.977288 435.500933,341.83311 433.163685,341.360745 L430.334553,341.360745 C430.695719,342.707468 431.598634,345.217269 432.381159,347.971929 C445.322932,347.971929 472.470558,347.971929 474.998718,347.420997 C480.263681,346.931017 485.455005,345.821743 490.468651,344.115405 C492.756034,341.728033 476.503575,340.932242 474.155998,340.932242 L474.155998,341.29953 Z" id="Path" fill="#B7C3DD"></path>
                        <path d="M474.396775,347.8495 L474.998718,347.8495 C480.263681,347.35952 485.455005,346.250246 490.468651,344.543908 C492.635646,342.156536 477.225907,341.360745 474.396775,341.360745 L474.396775,347.8495 Z" id="Path" fill="#000000" fill-rule="nonzero"></path>
                        <polygon id="Path" fill="url(#linearGradient-29)" points="584.431941 450.935 601.828091 475.053579 429.066368 473.720154 371.825701 473.278354 393.616035 447.384549 502.206538 451.241073"></polygon>
                        <path d="M501.363818,407.717445 L511.536653,409.615099 C508.567068,446.3439 507.082276,464.7083 507.082276,464.7083 C507.082276,464.7083 502.146344,470.340049 473.794832,469.911547 C445.443321,469.483044 434.788931,464.218583 434.788931,464.218583 L431.117079,407.962303 L501.363818,407.717445 Z" id="Path" fill="url(#linearGradient-30)"></path>
                        <path d="M437.196703,465.565305 C436.37478,465.314464 435.570375,465.007698 434.788931,464.647085 L434.066599,454.730309 L433.524851,446.405114 L431.959799,421.184671 C432.298065,421.121416 432.644837,421.121416 432.983102,421.184671 C434.362715,421.511261 435.656435,422.137761 436.775343,423.021112 L437.196703,465.565305 Z" id="Path" fill="#DBE1F1"></path>
                        <path d="M501.363818,407.717445 L511.536653,409.615099 L510.994905,416.471142 C504.975476,416.899645 490.16768,417.634221 462.839471,417.634221 C448.754007,417.634221 438.761754,417.634221 431.959799,417.144503 L431.418051,408.268377 L501.363818,407.717445 Z" id="Path" fill="url(#linearGradient-31)"></path>
                        <path d="M470.604535,412.798262 C447.068567,412.798262 427.866587,410.839393 427.866587,408.390806 C427.866587,405.942219 447.068567,404.044565 470.604535,404.044565 C494.140503,404.044565 513.462871,406.003434 513.462871,408.390806 C513.462871,410.778178 494.260892,412.798262 470.604535,412.798262 Z" id="Path" fill="url(#linearGradient-32)"></path>
                        <path d="M435.210291,414.879561 C408.905385,408.758094 414.744232,440.773365 426.662702,449.894351 C430.109778,453.041794 434.232305,455.326657 438.70156,456.566749 L437.678257,448.853701 C422.328713,442.732234 418.897638,415.552922 436.775343,426.081845 C444.179241,430.489301 434.969514,414.879561 434.969514,414.879561 L435.210291,414.879561 Z" id="Path" fill="url(#linearGradient-33)"></path>
                        <path d="M434.066599,454.730309 L433.524851,446.405114 L433.524851,446.405114 C434.60086,447.24097 435.773312,447.93992 437.01612,448.486413 L437.01612,456.077032 C436.011035,455.6795 435.026579,455.230006 434.066599,454.730309 L434.066599,454.730309 Z M427.62581,439.487857 C424.811418,436.391016 423.095301,432.426594 422.750073,428.224358 C423.150039,425.904429 424.477702,423.856877 426.416974,422.569182 C428.356246,421.281487 430.733624,420.868857 432.983102,421.42953 C434.362715,421.756119 435.656435,422.38262 436.775343,423.26597 L436.775343,426.081845 C424.375318,418.858514 422.328713,430.060798 427.62581,439.549072 L427.62581,439.487857 Z" id="Shape" fill="#DEEBFF"></path>
                        <path d="M166.803943,250.579393 C168.60386,254.622871 170.613152,258.566541 172.823372,262.393824 C181.431156,277.81992 206.471981,313.936574 207.615673,315.466941 L196.35934,330.342105 L166.924331,250.763037 L166.803943,250.579393 Z M214.658405,304.509515 L215.139959,305.366521 L207.976838,314.854794 L214.658405,304.509515 Z" id="Shape" fill="#C98000"></path>
                        <path d="M61.7649031,313.997789 C54.5727507,329.239144 49.7015238,345.504123 47.318273,362.234947 C45.9993236,377.938779 50.2717332,393.601901 59.3571314,406.370722 L66.8814179,363.030737 C62.5493934,355.78148 60.0281236,347.564042 59.5377143,339.095802 C58.9586581,330.648062 59.7931545,322.161639 62.0056802,313.997789 L61.7649031,313.997789 Z" id="Path" fill="#E89D00"></path>
                        <path d="M197.924392,180.366169 C197.924392,180.366169 190.339911,185.87549 194.553511,191.078736 C197.308188,194.560671 199.576868,198.412767 201.295272,202.525879 C201.295272,202.525879 196.178757,195.180119 192.807877,194.01704 C188.740171,190.88872 187.052081,185.493361 188.594276,180.549813 C190.88166,177.366651 197.924392,180.549813 197.924392,180.549813 L197.924392,180.366169 Z" id="Path" fill="#E5A1A9"></path>
                        <path d="M199.30886,202.036162 C199.30886,202.036162 197.984586,205.341754 195.456426,203.995031 C192.928265,202.648308 184.44087,191.38481 185.765145,184.83484 C186.407928,181.218392 189.698556,178.728664 193.289431,179.141876 C189.902248,178.357533 186.388873,179.767261 184.44087,182.692327 C178.842801,192.425459 200.633135,213.973022 199.248666,202.036162 L199.30886,202.036162 Z" id="Path" fill="#E5A1A9"></path>
                        <path d="M190.640882,205.709042 C192.443281,208.181474 195.162055,209.796153 198.165169,210.177713 C199.273998,210.33171 200.391356,209.963048 201.20008,209.176373 C202.008804,208.389698 202.420599,207.270898 202.318575,206.137545 L203.522461,212.809943 C203.522461,212.075367 201.054495,213.911807 202.017604,217.401043 C202.424566,219.109022 202.947504,220.786246 203.582655,222.420646 C200.819898,219.928249 198.225652,217.249124 195.817591,214.401525 C193.638521,211.809711 191.889971,208.873631 190.640882,205.709042 L190.640882,205.709042 Z" id="Path" fill="#E5A1A9"></path>
                        <path d="M334.806212,171.673687 L319.697445,179.692808 C319.697445,179.692808 317.590644,168.368095 315.303261,156.492449 C318.493559,165.001288 322.947936,174.856849 322.947936,174.856849 L333.000383,167.572304 C333.542132,168.857812 334.204269,170.326964 334.9266,171.857331 L334.806212,171.673687 Z" id="Path" fill="#2945AA"></path>
                        <polygon id="Path" fill="#2945AA" points="355.934408 177.978797 357.619849 187.405856 357.318877 176.387216"></polygon>
                        <path d="M300.97702,89.4011736 L306.03334,98.889447 C304.324796,104.470717 304.324796,110.448284 306.03334,116.029554 C308.200335,128.70099 309.945969,137.026185 309.945969,137.026185 C308.270294,126.301264 307.70539,115.427185 308.260529,104.582411 C309.885775,94.114703 313.858598,90.6866816 314.279958,91.1763989 C314.701318,91.6661163 300.97702,89.4011736 300.97702,89.4011736 Z" id="Path" fill="#2945AA"></path>
                        <path d="M487.519131,341.605604 C487.8535,341.965232 488.155668,342.354466 488.422045,342.768682 C487.79128,342.577588 487.14744,342.43436 486.495828,342.34018 L487.519131,341.605604 L487.519131,341.605604 Z M482.222033,346.502777 C484.866797,346.138712 487.468454,345.50291 489.987097,344.605122 C490.980238,345.882486 491.84721,347.256249 492.575451,348.706505 C493.658949,351.093877 489.565737,352.685459 488.241462,352.4406 C486.917188,352.195741 483.72689,348.339217 482.222033,346.319133 L482.222033,346.502777 Z" id="Shape" fill="#E5A1A9"></path>
                        <path d="M504.554115,347.788285 C502.550017,347.647783 500.538784,347.647783 498.534686,347.788285 C497.3308,347.788285 497.090023,351.216307 497.451189,351.706024 C499.711175,352.273977 502.002692,352.703254 504.313338,352.991532 C503.670954,351.371233 503.804376,349.539505 504.674504,348.033144 L504.554115,347.788285 Z" id="Path" fill="#E5A1A9"></path>
                        <path d="M330.412029,90.9927549 C330.412029,90.9927549 325.355708,88.6665975 324.392599,92.4619069 C323.429491,96.2572163 327.281925,99.6852377 326.860565,102.133824 C326.439205,104.582411 323.911045,102.99083 323.911045,101.460463 C323.301742,98.2480242 322.919533,94.9953206 322.767353,91.7273309 C323.27999,89.2690082 325.640828,87.686625 328.064451,88.1768802 C329.990669,88.1768802 330.171251,90.9927549 330.171251,90.9927549 L330.412029,90.9927549 Z" id="Path" fill="#E5A1A9"></path>
                        <path d="M328.064451,84.2591415 C325.843609,83.7165993 323.512137,84.499027 322.045022,86.2792255 C320.327546,89.3541043 320.327546,93.1211229 322.045022,96.1960017 C322.709665,97.3171896 323.254511,98.5074395 323.670268,99.7464524 C322.255135,96.1073015 321.940734,92.1213283 322.767353,88.2993095 C324.633377,84.4427855 329.749891,87.1974455 329.749891,87.1974455 L328.064451,84.2591415 Z" id="Path" fill="#E5A1A9"></path>
                        <polygon id="Path" fill="#B7C3DD" points="372.126673 479.950752 372.126673 479.950752 352.262557 494.764702 601.828091 491.030607 372.548033 490.479675"></polygon>
                        <path d="M471.326866,406.73801 C457.551825,406.257905 443.766333,407.304725 430.214165,409.859958 C443.544764,412.230104 457.077926,413.214609 470.604535,412.798262 C484.403369,413.34163 498.217955,412.273595 511.777431,409.615099 C498.422874,407.279229 484.87114,406.315347 471.326866,406.73801 L471.326866,406.73801 Z" id="Path" fill="#AEBCD3"></path>
                        <path d="M434.728737,464.096153 C421.606381,465.075588 413.17918,466.54474 413.17918,468.136321 C413.17918,471.013411 438.039423,473.278354 468.678317,473.278354 C499.317212,473.278354 524.358038,471.013411 524.358038,468.136321 C524.358038,466.667169 517.857054,465.381661 507.323053,464.524656 L507.323053,465.136803 C507.323053,465.136803 502.387121,470.768552 474.035609,470.340049 C445.684098,469.911547 435.029708,464.647085 435.029708,464.647085 L434.728737,464.096153 Z" id="Path" fill="#D9E8FF"></path>
                    </g>
                </g>
            </g>
        </g>
    </g>
</svg>