<?xml version="1.0" encoding="UTF-8"?>
<svg width="450px" height="386px" viewBox="0 0 450 386" version="1.1" xmlns="http://www.w3.org/2000/svg" xmlns:xlink="http://www.w3.org/1999/xlink">
    <!-- Generator: Sketch 57.1 (83088) - https://sketch.com -->
    <title>uno</title>
    <desc>Created with Sketch.</desc>
    <defs>
        <linearGradient x1="0%" y1="50.2923977%" x2="100%" y2="50.2923977%" id="linearGradient-1">
            <stop stop-color="#FC7318" offset="0%"></stop>
            <stop stop-color="#FEB423" offset="100%"></stop>
        </linearGradient>
        <linearGradient x1="95.2519192%" y1="53.9804633%" x2="3.69135804%" y2="45.8726195%" id="linearGradient-2">
            <stop stop-color="#EEF4FE" offset="0%"></stop>
            <stop stop-color="#F8FBFF" offset="47%"></stop>
            <stop stop-color="#FFFFFF" offset="100%"></stop>
        </linearGradient>
        <linearGradient x1="0%" y1="50%" x2="100%" y2="50%" id="linearGradient-3">
            <stop stop-color="#EEF4FE" offset="0%"></stop>
            <stop stop-color="#F8FBFF" offset="47%"></stop>
            <stop stop-color="#FFFFFF" offset="100%"></stop>
        </linearGradient>
        <linearGradient x1="0%" y1="50.1492537%" x2="100.045977%" y2="50.1492537%" id="linearGradient-4">
            <stop stop-color="#FC7318" offset="0%"></stop>
            <stop stop-color="#FEB423" offset="100%"></stop>
        </linearGradient>
        <linearGradient x1="-76.068642%" y1="45.7612359%" x2="-176.222858%" y2="45.7612359%" id="linearGradient-5">
            <stop stop-color="#B3CDFA" offset="0%"></stop>
            <stop stop-color="#E3EDFE" offset="81%"></stop>
        </linearGradient>
        <linearGradient x1="-89.0758222%" y1="42.5816697%" x2="-188.614897%" y2="42.5816697%" id="linearGradient-6">
            <stop stop-color="#B3CDFA" offset="0%"></stop>
            <stop stop-color="#E3EDFE" offset="81%"></stop>
        </linearGradient>
        <linearGradient x1="-0.025921043%" y1="49.9842612%" x2="100.004739%" y2="49.9842612%" id="linearGradient-7">
            <stop stop-color="#FC7318" offset="0%"></stop>
            <stop stop-color="#FEB423" offset="100%"></stop>
        </linearGradient>
    </defs>
    <g id="Page-1" stroke="none" stroke-width="1" fill="none" fill-rule="evenodd">
        <g id="MainPage" transform="translate(-7.000000, -1446.000000)" fill-rule="nonzero">
            <g id="uno" transform="translate(7.000000, 1446.000000)">
                <path d="M353.318892,105 L224.038283,105 C223.439931,105.013843 222.866913,104.755365 222.477893,104.295565 C222.088873,103.835764 221.925136,103.223436 222.032019,102.62813 L231.029344,36.3566181 C231.242802,35.030612 232.355449,34.0431885 233.683787,34.0009217 L362.948962,34.0009217 C363.546762,33.9826436 364.121019,34.2370088 364.512943,34.6936816 C364.904868,35.1503544 365.07293,35.7609456 364.97066,36.3566181 L355.957902,102.596929 C355.777442,103.942193 354.661248,104.958352 353.318892,105 Z" id="Path" fill="#FFFFFF"></path>
                <path d="M362.948741,34.0009227 L362.578314,34.0009227 L353.580017,100.267234 C353.378056,101.60112 352.25857,102.595599 350.925288,102.625522 L222.032022,102.625522 L222.032022,102.625522 C221.925127,103.221482 222.088882,103.834483 222.477944,104.29479 C222.867006,104.755096 223.440086,105.013858 224.038503,105 L353.333066,105 C354.665463,104.96077 355.778208,103.959914 355.97236,102.625522 L364.970657,36.35921 C365.072938,35.7628824 364.904857,35.1516196 364.512891,34.6944445 C364.120924,34.2372694 363.546605,33.9826245 362.948741,34.0009227 L362.948741,34.0009227 Z" id="Path" fill="#B3CDFA"></path>
                <polygon id="Path" fill="#D1E1FC" points="243.4 44 235 44 235.583333 40 244 40"></polygon>
                <polygon id="Path" fill="#D1E1FC" points="242.415584 55 234 55 234.584416 51 243 51"></polygon>
                <polygon id="Path" fill="#D1E1FC" points="241.415584 67 233 67 233.584416 63 242 63"></polygon>
                <polygon id="Path" fill="#D1E1FC" points="239.415584 77 231 77 231.584416 73 240 73"></polygon>
                <polygon id="Path" fill="#D1E1FC" points="237.416667 88 229 88 229.6 84 238 84"></polygon>
                <polygon id="Path" fill="#D1E1FC" points="236.416667 99 228 99 228.6 95 237 95"></polygon>
                <polygon id="Path" fill="#D1E1FC" points="350.462748 60 310 60 310.537252 56 351 56"></polygon>
                <polygon id="Path" fill="#D1E1FC" points="349.462949 72 309 72 309.552395 68 350 68"></polygon>
                <polygon id="Path" fill="#D1E1FC" points="330.456662 83 307 83 307.558862 79 331 79"></polygon>
                <path d="M281.011058,46 L281.011058,46 C274.022867,46.0993017 267.308011,48.7525713 262.11406,53.4668508 C256.789047,58.0939263 253.285375,64.4918009 252.238555,71.5 C250.328669,85.5883978 260.095482,97 274.054727,97 C281.04746,96.900214 287.767033,94.2472605 292.967252,89.5331492 C298.250131,84.8850476 301.718131,78.4919999 302.749592,71.5 L302.749592,71.5 C304.70606,57.4116022 294.98583,46 281.011058,46 Z M288.572962,84.3987109 C284.85387,87.7689724 280.048773,89.6654829 275.048488,89.7366483 C270.417268,89.8697706 265.972603,87.894261 262.946276,84.3576063 C259.919948,80.8209515 258.633453,76.0988609 259.443326,71.5 C260.192277,66.4905364 262.692468,61.9158489 266.492822,58.6012891 C270.211915,55.2310276 275.017012,53.3345171 280.017296,53.2633517 L280.017296,53.2633517 C284.648517,53.1302294 289.093181,55.105739 292.119509,58.6423937 C295.145836,62.1790485 296.432331,66.9011391 295.622459,71.5 L295.622459,71.5 C294.867865,76.5182935 292.349454,81.096069 288.52638,84.3987109 L288.572962,84.3987109 Z" id="Shape" fill="#B3CDFA" opacity="0.3"></path>
                <path d="M276.001642,51.9167702 L276.001642,51.9167702 L277,45 L277,45 C269.97686,45.1044388 263.22954,47.6295555 258,52.110559 L262.414614,57 C266.150908,53.7905555 270.97823,51.9845398 276.001642,51.9167702 Z" id="Path" fill="#3B1993"></path>
                <path d="M275.991529,45 L275,52.1743977 C279.620818,52.0429057 284.055498,53.9942213 287.075028,57.4875627 C290.094557,60.9809042 291.378162,65.6451635 290.570109,70.1877023 L290.570109,70.1877023 C289.829437,75.1380427 287.333676,79.658852 283.536448,82.928443 L287.920866,88 C293.220615,83.4210278 296.709102,77.1048 297.758696,70.1877023 L297.758696,70.1877023 C299.679784,56.2873067 289.919418,45 275.991529,45 Z" id="Path" fill="#00AEF3"></path>
                <path d="M255.076253,69 C255.809253,64.2766881 258.265311,59.9632751 262,56.8402778 L257.684096,52 C252.467166,56.3701564 249.033192,62.398344 248,69 L255.076253,69 L255.076253,69 Z" id="Path" fill="#FF0084"></path>
                <path d="M283.602551,82.645795 C279.882303,85.9543413 275.07398,87.819029 270.068354,87.8944138 C265.430563,88.0258445 260.979534,86.0870501 257.950388,82.6160293 C254.921242,79.1450086 253.636245,74.5110363 254.451972,70 L247.242021,70 C245.315224,83.8121547 255.104597,95 269.073878,95 C276.071086,94.899393 282.794537,92.2988266 288,87.679558 L283.602551,82.645795 Z" id="Path" fill="#FFAE21"></path>
                <path d="M338.740684,290 L94.4542272,289.579728 C84.4649339,289.579728 77.6186892,281.096893 79.2368925,270.761843 L101.160435,130.678335 C102.7164,120.35885 112.270023,111.92271 122.259316,112 L366.545773,112.43635 C376.535066,112.43635 383.381311,120.903619 381.763107,131.238669 L359.839565,271.322177 C358.159123,281.594968 348.667738,290.015543 338.740684,290 Z" id="Path" fill="#FF0084" opacity="0.47"></path>
                <g id="Group" opacity="0.1" transform="translate(170.000000, 112.000000)" fill="#FF0084">
                    <path d="M51.8097744,0.553015551 L0.696992481,0.460043949 L144.029624,177.632928 L168.346917,177.632928 C175.821558,177.347433 182.630155,173.254702 186.391278,166.786241 L51.8097744,0.553015551 Z" id="Path"></path>
                    <polygon id="Path" points="163.421504 0.754454023 76.1115789 0.599501352 191.750376 143.527845 205.891579 53.2369236"></polygon>
                </g>
                <path d="M338.827333,261 L103.59719,260.604396 C103.114494,260.61663 102.653144,260.416972 102.348535,260.064017 C102.043926,259.711063 101.930612,259.244849 102.041846,258.802198 L102.041846,258.802198 C102.211079,257.796936 103.108751,257.043208 104.18822,257 L339.40281,257.395604 C339.885506,257.38337 340.346856,257.583028 340.651465,257.935983 C340.956074,258.288937 341.069388,258.755151 340.958154,259.197802 L340.958154,259.197802 C340.779238,260.192267 339.896087,260.939215 338.827333,261 L338.827333,261 Z" id="Path" fill="#FFFFFF"></path>
                <path d="M184.820853,261 L104.587815,260.858824 C104.107952,260.871921 103.649311,260.65817 103.34649,260.280301 C103.043668,259.902432 102.931019,259.403308 103.041601,258.929412 L103.041601,258.929412 C103.20984,257.853191 104.102243,257.046258 105.175376,257 L185.408414,257.141176 C185.891721,257.126788 186.353836,257.342589 186.657363,257.724419 C186.960891,258.106249 187.07088,258.61014 186.954628,259.086275 L186.954628,259.086275 C186.779795,260.156298 185.889066,260.955169 184.820853,261 Z" id="Path" fill="#FFAE21"></path>
                <path d="M191.86173,258.007802 C191.20253,261.908395 187.873842,264.822818 183.876017,264.999669 C182.098765,265.01851 180.410432,264.232919 179.29293,262.867134 C178.175428,261.501348 177.751546,259.705437 178.142276,257.992019 C178.784337,254.082076 182.122835,251.159064 186.127988,251.000153 C187.90311,250.987397 189.587391,251.774619 190.703519,253.138725 C191.819647,254.502832 192.245991,256.295168 191.86173,258.007802 Z" id="Path" fill="#FFAE21"></path>
                <path d="M254.696588,190.114748 L209.760455,214.446966 C208.74177,215.165499 207.382218,215.185527 206.342512,214.497315 C205.302806,213.809103 204.798521,212.555347 205.074727,211.345345 L212.759321,162.541335 C213.196656,159.842925 216.320475,158.152541 218.382195,159.439714 L255.711829,183.911505 C257.789169,185.276219 257.273739,188.656986 254.743446,190.006191 L209.760455,214.446966 C208.74177,215.165499 207.382218,215.185527 206.342512,214.497315 C205.302806,213.809103 204.798521,212.555347 205.074727,211.345345 L212.759321,162.541335 C213.196656,159.842925 216.320475,158.152541 218.382195,159.439714 L255.711829,183.911505 C257.742312,185.384775 257.195643,188.765542 254.696588,190.114748 Z" id="Path" fill="#FFAE21"></path>
                <path d="M375.433101,115 C377.894094,118.62864 378.834314,123.076533 378.052136,127.389853 L356.216511,266.775701 C354.666786,277.059279 345.151475,285.360481 335.202241,285.360481 L91.8954213,284.942323 C88.72178,284.959749 85.6184035,284.008801 83,282.216555 C85.8690052,286.279306 90.5621497,288.662058 95.537275,288.581842 L338.844094,289 C348.793329,289 358.246651,280.636849 359.858365,270.41522 L381.69399,131.029372 C382.904766,124.924048 380.462447,118.671127 375.433101,115 L375.433101,115 Z" id="Path" fill="#3B1993"></path>
                <path d="M217.20456,27.0007413 L122.512781,27.0007413 C120.669119,27.0597897 119.1273,28.4243207 118.839326,30.2517988 L112.048066,77.7482012 C111.894029,78.5611411 112.114504,79.4003624 112.647945,80.0316017 C113.181387,80.662841 113.970659,81.0184853 114.79544,80.9992587 L209.502654,80.9992587 C211.343925,80.9341781 212.882465,79.5725496 213.176108,77.7482012 L219.951934,30.2517988 C220.105971,29.4388589 219.885496,28.5996376 219.352055,27.9683983 C218.818613,27.337159 218.029341,26.9815147 217.20456,27.0007413 L217.20456,27.0007413 Z" id="Path" fill="#F1F2F2"></path>
                <path d="M218.269984,27 C218.453018,27.4953278 218.511454,28.0283014 218.440115,28.5517016 L211.650343,76.1579069 C211.395402,77.9896416 209.886994,79.3860704 208.04666,79.4940654 L113.067185,79.4940654 C112.702155,79.4928557 112.340442,79.4244841 112,79.2923442 C112.414621,80.3449544 113.439621,81.0263916 114.567431,80.999216 L209.469574,80.999216 C211.314635,80.9339849 212.856341,79.5692085 213.150589,77.7406426 L219.940361,30.1344372 C220.216583,28.8212313 219.511888,27.4988809 218.269984,27 L218.269984,27 Z" id="Path" fill="#274187"></path>
                <path d="M139.897191,41.5076629 C139.250646,45.1698973 136.171914,47.8749027 132.510761,47.9974561 C130.881579,48.0480696 129.318627,47.3411811 128.265645,46.0774848 C127.212664,44.8137884 126.784645,43.1312871 127.103108,41.5076629 C127.736774,37.8417513 130.812055,35.1278406 134.474433,35.0025274 C136.107561,34.9520271 137.674258,35.6605435 138.730048,36.9270684 C139.785838,38.1935932 140.21552,39.8799311 139.897191,41.5076629 Z" id="Path" fill="#FFAE21"></path>
                <path d="M136.893868,65.507719 C136.258186,69.1760969 133.174025,71.8865465 129.509341,71.9974561 C127.880579,72.0480692 126.318029,71.3411868 125.265319,70.0775014 C124.212609,68.8138159 123.7847,67.1313291 124.103081,65.507719 C124.737773,61.836363 127.820427,59.1208323 131.487609,59.0026397 C133.119594,58.9509792 134.685338,59.6598722 135.738698,60.9273275 C136.792058,62.1947828 137.217526,63.8818136 136.893868,65.507719 Z" id="Path" fill="#FFAE21"></path>
                <polygon id="Path" fill="url(#linearGradient-1)" points="203.514604 40 152 40 152.37579 37 204 37"></polygon>
                <polygon id="Path" fill="#4085E2" points="189.519576 47 152 47 152.371941 44 190 44"></polygon>
                <polygon id="Path" fill="#4D5068" points="165.536907 64 149 64 149.358524 61.0174419 166 61"></polygon>
                <polygon id="Path" fill="#4085E2" points="173.517857 69.9824561 147 70 147.373272 67 174 67"></polygon>
                <path d="M136.813891,42.3167388 L132.484271,44.9408358 C132.386122,45.0183237 132.25519,45.0198211 132.155638,44.9445941 C132.056085,44.8693671 132.008769,44.7331768 132.036877,44.602762 L132.772912,39.3706666 C132.7871,39.2332806 132.861208,39.1125797 132.970917,39.0481695 C133.080627,38.9837593 133.211776,38.9839547 133.321331,39.0486915 L136.886052,41.6727886 C136.974252,41.7618351 137.015315,41.8951416 136.994809,42.0258546 C136.974302,42.1565677 136.895095,42.2663963 136.785027,42.3167388 L132.455407,44.9408358 C132.357258,45.0183237 132.226326,45.0198211 132.126774,44.9445941 C132.027221,44.8693671 131.979905,44.7331768 132.008013,44.602762 L132.744048,39.3706666 C132.758236,39.2332806 132.832343,39.1125797 132.942053,39.0481695 C133.051763,38.9837593 133.182912,38.9839547 133.292467,39.0486915 L136.857187,41.6727886 C136.949577,41.7521637 137,41.8780707 136.991236,42.0077895 C136.982515,42.1375083 136.915861,42.253624 136.813891,42.3167388 L136.813891,42.3167388 Z" id="Path" fill="#FFFFFF"></path>
                <path d="M131.812112,65.3309641 L127.480911,67.9434814 C127.384947,68.016975 127.258867,68.0189497 127.161096,67.9484903 C127.063324,67.878031 127.012965,67.7489058 127.033354,67.6209484 L127.769658,62.3636604 C127.785596,62.2306744 127.857547,62.1142395 127.963215,62.0504383 C128.068883,61.9866371 128.195504,61.9831759 128.303839,62.0411274 L131.869861,64.6697714 C131.96602,64.755641 132.014168,64.8920559 131.996342,65.0281229 C131.978516,65.16419 131.897392,65.2794735 131.783237,65.3309641 L127.452037,67.9434814 C127.356072,68.016975 127.229993,68.0189497 127.132221,67.9484903 C127.034449,67.878031 126.98409,67.7489058 127.004479,67.6209484 L127.740783,62.3636604 C127.756721,62.2306744 127.828672,62.1142395 127.93434,62.0504383 C128.040008,61.9866371 128.166629,61.9831759 128.274965,62.0411274 L131.840986,64.6697714 C131.941416,64.7454752 131.999151,64.8742761 131.993248,65.0094509 C131.987345,65.1446257 131.918661,65.2665383 131.812112,65.3309641 L131.812112,65.3309641 Z" id="Path" fill="#FFFFFF"></path>
                <path d="M326.411587,0 L237.613684,0 C235.867644,0.0720892193 234.419787,1.39074627 234.167332,3.13884091 L231.06251,24.8594435 C230.888529,25.6386379 231.082273,26.4553327 231.586916,27.0699934 C232.09156,27.6846541 232.849898,28.0276048 233.639512,27.9982589 L322.437415,27.9982589 C324.199762,27.9253954 325.648032,26.5677504 325.852719,24.7966672 L328.957541,3.0760646 C329.09616,2.31345558 328.891563,1.52805599 328.399374,0.933390268 C327.907186,0.338724545 327.17856,-0.00340131958 326.411587,0 Z" id="Path" fill="url(#linearGradient-2)"></path>
                <path d="M327.39828,1 C327.582922,1.4459661 327.64205,1.93265631 327.569448,2.40889228 L324.457316,23.6035327 C324.204267,25.3092973 322.753001,26.5960233 321.00285,26.666342 L231.995882,26.666342 C231.653802,26.6655341 231.315291,26.5978639 231,26.4672594 C231.401355,27.4223273 232.362295,28.0324631 233.411902,27.998664 L322.41887,27.998664 C324.144396,27.9371937 325.58173,26.6769538 325.842215,24.9971109 L328.954346,3.80247051 C329.183643,2.62225275 328.531384,1.44753615 327.39828,1 L327.39828,1 Z" id="Path" fill="#B3CDFA"></path>
                <path d="M254.890854,14.0453201 C254.298906,17.4093549 251.457435,19.893193 248.081579,19.9975674 C246.580524,20.0449772 245.140029,19.3972955 244.16892,18.238341 C243.197811,17.0793865 242.802096,15.5356722 243.094083,14.0453201 C243.653457,10.6484565 246.501495,8.12096579 249.903358,8.00242946 C251.421753,7.95457697 252.877557,8.6157792 253.851227,9.79548621 C254.824898,10.9751932 255.208267,12.5423492 254.890854,14.0453201 L254.890854,14.0453201 Z" id="Path" fill="#FF0084"></path>
                <polygon id="Path" fill="#D1E1FC" points="313.550388 13 266 13 266.356589 10 314 10"></polygon>
                <polygon id="Path" fill="#D1E1FC" points="300.543307 18 265 18 265.362205 15 301 15"></polygon>
                <path d="M250.813891,14.3241769 L246.484271,16.9409998 C246.386122,17.0182729 246.25519,17.0197661 246.155638,16.9447477 C246.056085,16.8697292 246.008769,16.7339164 246.036877,16.6038631 L246.772912,11.3862714 C246.772912,11.0972971 247.119282,10.9046476 247.306899,11.0491347 L250.886052,13.6820118 C250.974252,13.7708115 251.015315,13.9037484 250.994809,14.0340991 C250.974302,14.1644499 250.895095,14.273974 250.785027,14.3241769 L246.455407,16.9409998 C246.357258,17.0182729 246.226326,17.0197661 246.126774,16.9447477 C246.027221,16.8697292 245.979905,16.7339164 246.008013,16.6038631 L246.744048,11.3862714 C246.744048,11.0972971 247.090418,10.9046476 247.278035,11.0491347 L250.857187,13.6820118 C250.949577,13.7611669 251,13.8867249 250.991236,14.0160841 C250.982515,14.1454433 250.915861,14.2612371 250.813891,14.3241769 Z" id="Path" fill="#FFFFFF"></path>
                <g id="Group" style="mix-blend-mode: multiply;" transform="translate(116.000000, 112.000000)">
                    <path d="M5.4375,0.36 L0.75,33.4017391 L0.75,33.4017391 L0.75,33.4017391 C0.683070097,33.9223669 0.842383318,34.446735 1.1875,34.8417391 L1.1875,34.8417391 C1.25791793,34.9226395 1.33645624,34.9960694 1.421875,35.0608696 L1.53125,35.0608696 L1.75,35.186087 L1.9375,35.186087 L2.125,35.186087 C2.2599405,35.2021749 2.3963095,35.2021749 2.53125,35.186087 L92.21875,35.186087 C93.4222924,35.1493847 94.4311066,34.2634966 94.625,33.0730435 L99.3125,0.203478261 L5.4375,0.36 Z" id="Path" fill="#FFFFFF" opacity="0"></path>
                    <path d="M5.453125,0.36 L0.765625,33.1513043 L0.765625,33.1513043 L0.765625,33.1513043 C0.701016145,33.6643118 0.854040726,34.1809583 1.1875,34.5756522 L1.1875,34.5756522 C1.25393028,34.6603169 1.33298205,34.7342269 1.421875,34.7947826 L1.515625,34.7947826 L1.734375,34.92 L1.9375,34.92 L2.109375,34.92 L2.515625,34.92 L92.0625,34.92 C93.2599127,34.8895848 94.2651769,34.0076261 94.453125,32.8226087 L99.0625,0.187826087 L5.453125,0.36 Z" id="Path" fill="#FAFBFD" opacity="0.02"></path>
                    <path d="M5.453125,0.36 L0.859375,32.9008696 L0.859375,32.9008696 L0.859375,32.9008696 C0.796055731,33.4185847 0.948679792,33.9395415 1.28125,34.3408696 L1.515625,34.5443478 L1.625,34.5443478 L1.84375,34.6695652 L2.03125,34.6695652 L2.203125,34.6695652 L2.625,34.6695652 L91.828125,34.6695652 C93.0194284,34.6455433 94.0212194,33.7674517 94.203125,32.5878261 L98.78125,0.203478261 L5.453125,0.36 Z" id="Path" fill="#F5F7FB" opacity="0.05"></path>
                    <path d="M5.46875,0.36 L0.90625,32.6504348 L0.90625,32.6504348 L0.90625,32.6504348 C0.833487571,33.1640773 0.987485809,33.684011 1.328125,34.0747826 L1.328125,34.0747826 C1.39521091,34.154406 1.47428674,34.2230576 1.5625,34.2782609 L1.65625,34.2782609 L1.875,34.4034783 L2.0625,34.4034783 L2.25,34.4034783 L2.65625,34.4034783 L91.75,34.4034783 C92.9268005,34.3720963 93.9130565,33.5026816 94.09375,32.3373913 L98.640625,0.203478261 L5.46875,0.36 Z" id="Path" fill="#F0F3FA" opacity="0.07"></path>
                    <path d="M5.46875,0.36 L0.953125,32.4 L0.953125,32.4 L0.953125,32.4 C0.884824356,32.9058958 1.03228454,33.4172226 1.359375,33.8086957 L1.359375,33.8086957 C1.42452129,33.8844497 1.49789057,33.9526968 1.578125,34.0121739 L1.6875,34.0121739 L1.90625,34.1373913 L2.09375,34.1373913 L2.265625,34.1373913 L2.671875,34.1373913 L91.421875,34.1373913 C92.5912699,34.1012262 93.5724321,33.2428543 93.765625,32.0869565 L98.265625,0.203478261 L5.46875,0.36 Z" id="Path" fill="#EBEFF8" opacity="0.1"></path>
                    <path d="M5.484375,0.36 L1,32.1495652 L1,32.1495652 L1,32.1495652 C0.930250068,32.6507487 1.07813689,33.157857 1.40625,33.5426087 L1.40625,33.5426087 C1.47666793,33.6235091 1.55520624,33.696939 1.640625,33.7617391 L1.734375,33.7617391 L1.953125,33.8869565 L2.140625,33.8869565 L2.3125,33.8869565 L2.71875,33.8869565 L91.234375,33.8869565 C92.3976194,33.8570337 93.3752016,33.0026263 93.5625,31.8521739 L98,0.516521739 L5.484375,0.36 Z" id="Path" fill="#E6EBF6" opacity="0.12"></path>
                    <path d="M5.5,0.36 L1.125,31.8991304 L1.125,31.8991304 L1.125,31.8991304 C1.05365645,32.3956212 1.20200373,32.8985929 1.53125,33.2765217 C1.59617512,33.3571545 1.66950725,33.4306141 1.75,33.4956522 L1.859375,33.4956522 C1.9211728,33.5463254 1.98949359,33.588442 2.0625,33.6208696 L2.25,33.6208696 L2.421875,33.6208696 L2.828125,33.6208696 L91.125,33.6208696 C92.1450245,33.5701363 93.0219619,32.8799157 93.3125,31.8991304 L97.75,0.516521739 L5.5,0.36 Z" id="Path" fill="#E1E6F4" opacity="0.15"></path>
                    <path d="M5.5,0.36 L1.09375,31.6643478 C1.09375,31.6643478 1.09375,31.6643478 1.09375,31.6643478 L1.09375,31.6643478 C1.04060007,32.1619349 1.19303851,32.6596353 1.515625,33.0417391 L1.515625,33.0417391 L1.734375,33.2452174 L1.828125,33.2452174 L2.046875,33.3704348 C2.10905283,33.379425 2.17219717,33.379425 2.234375,33.3704348 L2.390625,33.3704348 C2.52555666,33.3866714 2.66194334,33.3866714 2.796875,33.3704348 L90.859375,33.3704348 C92.0019943,33.3395331 92.960562,32.4976834 93.140625,31.3669565 L97.546875,0.234782609 L5.5,0.36 Z" id="Path" fill="#DCE2F2" opacity="0.17"></path>
                    <path d="M5.515625,0.36 L1.125,31.3982609 L1.125,31.3982609 L1.125,31.3982609 C1.07189309,31.88845 1.2183535,32.3793814 1.53125,32.76 L1.53125,32.76 C1.60190494,32.8360076 1.68047736,32.9042221 1.765625,32.9634783 L1.859375,32.9634783 C1.9211728,33.0141514 1.98949359,33.0562681 2.0625,33.0886957 L2.25,33.0886957 C2.30693354,33.0977707 2.36494146,33.0977707 2.421875,33.0886957 C2.55157069,33.1050642 2.68280431,33.1050642 2.8125,33.0886957 L90.640625,33.0886957 C91.7771326,33.0641626 92.7322089,32.2261928 92.90625,31.1008696 L97.265625,0.219130435 L5.515625,0.36 Z" id="Path" fill="#D7DEF0" opacity="0.2"></path>
                    <path d="M5.53125,0.36 L1.125,31.1478261 L1.125,31.1478261 L1.125,31.1478261 C1.06298457,31.6339926 1.21074632,32.123593 1.53125,32.493913 C1.53125,32.493913 1.53125,32.493913 1.53125,32.493913 C1.59639629,32.5696671 1.66976557,32.6379142 1.75,32.6973913 L1.84375,32.6973913 L2.0625,32.8069565 L2.234375,32.8069565 C2.29145109,32.8139974 2.34917391,32.8139974 2.40625,32.8069565 C2.53594569,32.8233251 2.66717931,32.8233251 2.796875,32.8069565 L90.40625,32.8069565 C91.531785,32.7763035 92.4765137,31.9482283 92.65625,30.8347826 L96.96875,0.203478261 L5.53125,0.36 Z" id="Path" fill="#D2DAEF" opacity="0.22"></path>
                    <path d="M5.53125,0.36 L1.21875,30.8973913 L1.21875,30.8973913 L1.21875,30.8973913 C1.15085996,31.3792483 1.29963332,31.8664686 1.625,32.2278261 L1.625,32.2278261 C1.68618727,32.3072987 1.76010653,32.3760574 1.84375,32.4313043 L1.9375,32.4313043 L2.140625,32.5408696 L2.3125,32.5408696 C2.36957609,32.5479105 2.42729891,32.5479105 2.484375,32.5408696 C2.61407069,32.5572381 2.74530431,32.5572381 2.875,32.5408696 L90.25,32.5408696 C91.3669945,32.5103432 92.3048051,31.689153 92.484375,30.5843478 L96.765625,0.203478261 L5.53125,0.36 Z" id="Path" fill="#CDD6ED" opacity="0.24"></path>
                    <path d="M5.546875,0.36 L1.265625,30.6469565 L1.265625,30.6469565 L1.265625,30.6469565 C1.2019181,31.1258349 1.34387229,31.6093185 1.65625,31.9773913 L1.65625,31.9773913 L1.875,32.1808696 L1.96875,32.1808696 L2.171875,32.2904348 L2.359375,32.2904348 L2.515625,32.2904348 C2.64532069,32.3068033 2.77655431,32.3068033 2.90625,32.2904348 L90.0625,32.2904348 C91.1649999,32.252689 92.0873806,31.4401066 92.265625,30.3495652 L96.515625,0.219130435 L5.546875,0.36 Z" id="Path" fill="#C9D2EB" opacity="0.27"></path>
                    <path d="M5.546875,0.36 L1.3125,30.3965217 L1.3125,30.3965217 L1.3125,30.3965217 C1.24728043,30.87071 1.38968144,31.3500095 1.703125,31.7113043 L1.703125,31.7113043 C1.76866692,31.78205 1.842059,31.8450669 1.921875,31.8991304 L2.015625,31.8991304 L2.21875,32.0086957 L2.390625,32.0086957 L2.546875,32.0086957 C2.67657069,32.0250642 2.80780431,32.0250642 2.9375,32.0086957 L89.859375,32.0086957 C90.9581847,31.9834318 91.8804045,31.1717867 92.046875,30.0834783 L96.265625,0.203478261 L5.546875,0.36 Z" id="Path" fill="#C4CEE9" opacity="0.29"></path>
                    <path d="M5.5625,0.36 L1.359375,30.0991304 L1.359375,30.0991304 L1.359375,30.0991304 C1.28571655,30.569139 1.42945892,31.0471936 1.75,31.3982609 L1.75,31.3982609 C1.80996662,31.4687813 1.87816221,31.5318406 1.953125,31.586087 L2.046875,31.586087 L2.25,31.6956522 L2.421875,31.6956522 L2.59375,31.6956522 C2.71816344,31.7128074 2.84433656,31.7128074 2.96875,31.6956522 L89.65625,31.6956522 C90.7465102,31.6705 91.6618024,30.8657529 91.828125,29.786087 L96.015625,0.156521739 L5.5625,0.36 Z" id="Path" fill="#BFCAE7" opacity="0.32"></path>
                    <path d="M5.578125,0.36 L1.40625,29.8956522 L1.40625,29.8956522 L1.40625,29.8956522 C1.33332487,30.3581296 1.47090826,30.8290237 1.78125,31.1791304 L1.78125,31.1791304 C1.84265093,31.254062 1.91668783,31.3176325 2,31.3669565 L2.09375,31.3669565 L2.296875,31.4765217 L2.46875,31.4765217 L2.625,31.4765217 C2.74941344,31.493677 2.87558656,31.493677 3,31.4765217 L89.46875,31.4765217 C90.5456418,31.4391925 91.4472937,30.6472388 91.625,29.5826087 L95.765625,0.203478261 L5.578125,0.36 Z" id="Path" fill="#BAC6E5" opacity="0.34"></path>
                    <path d="M5.578125,0.36 L1.453125,29.6452174 L1.453125,29.6452174 L1.453125,29.6452174 C1.38503815,30.1025677 1.52231153,30.5666711 1.828125,30.9130435 C1.828125,30.9130435 1.828125,30.9130435 1.828125,30.9130435 C1.88780249,30.9884636 1.95596078,31.0567405 2.03125,31.1165217 L2.125,31.1165217 L2.328125,31.226087 L2.5,31.226087 L2.65625,31.226087 C2.78072533,31.2423119 2.90677467,31.2423119 3.03125,31.226087 L89.265625,31.226087 C90.3339832,31.1889 91.2287276,30.4038193 91.40625,29.3478261 L95.515625,0.219130435 L5.578125,0.36 Z" id="Path" fill="#B5C2E4" opacity="0.37"></path>
                    <path d="M5.59375,0.36 L1.5,29.3947826 C1.5,29.3947826 1.5,29.3947826 1.5,29.3947826 L1.5,29.3947826 C1.43191315,29.8521329 1.56918653,30.3162363 1.875,30.6626087 L1.875,30.6626087 L2.078125,30.8504348 L2.171875,30.8504348 L2.359375,30.96 L2.53125,30.96 L2.6875,30.96 C2.81204673,30.9750806 2.93795327,30.9750806 3.0625,30.96 L89,30.96 C90.0596138,30.9365281 90.952372,30.160582 91.125,29.1130435 L95.203125,0.234782609 L5.59375,0.36 Z" id="Path" fill="#B0BDE2" opacity="0.39"></path>
                    <path d="M5.609375,0.36 L1.546875,29.1443478 C1.546875,29.1443478 1.546875,29.1443478 1.546875,29.1443478 L1.546875,29.1443478 C1.49109658,29.6007524 1.62689754,30.0598777 1.921875,30.4121739 L1.921875,30.4121739 L2.140625,30.6 L2.140625,30.6 L2.34375,30.7095652 L2.515625,30.7095652 L2.671875,30.7095652 C2.79112632,30.7256841 2.91199868,30.7256841 3.03125,30.7095652 L88.8125,30.7095652 C89.8600293,30.6849927 90.7406957,29.9147153 90.90625,28.8782609 L94.953125,0.250434783 L5.609375,0.36 Z" id="Path" fill="#ABB9E0" opacity="0.41"></path>
                    <path d="M5.609375,0.36 L1.578125,28.9252174 L1.578125,28.9252174 L1.578125,28.9252174 C1.51480514,29.377422 1.65177379,29.8347782 1.953125,30.1773913 L1.953125,30.1773913 L2.15625,30.3652174 L2.25,30.3652174 L2.4375,30.4747826 L2.609375,30.4747826 L2.765625,30.4747826 C2.88487632,30.4909015 3.00574868,30.4909015 3.125,30.4747826 L88.671875,30.4747826 C89.7108615,30.4503305 90.5846055,29.6869428 90.75,28.6591304 L94.875,0.500869565 L5.609375,0.36 Z" id="Path" fill="#A6B5DE" opacity="0.44"></path>
                    <path d="M5.625,0.36 L1.625,28.6434783 L1.625,28.6434783 L1.625,28.6434783 C1.5663764,29.0905191 1.70304552,29.5411707 2,29.88 C2.05996662,29.9505205 2.12816221,30.0135797 2.203125,30.0678261 L2.28125,30.0678261 L2.46875,30.1773913 L2.640625,30.1773913 L2.796875,30.1773913 L3.15625,30.1773913 L88.46875,30.1773913 C89.4980914,30.1422796 90.3635541,29.3926458 90.546875,28.3773913 L94.515625,0.203478261 L5.625,0.36 Z" id="Path" fill="#A1B1DC" opacity="0.46"></path>
                    <path d="M5.625,0.36 L1.671875,28.3930435 L1.671875,28.3930435 L1.671875,28.3930435 C1.61875188,28.8370289 1.74852016,29.2835299 2.03125,29.6295652 L2.03125,29.6295652 C2.08702099,29.7040013 2.15585101,29.7676472 2.234375,29.8173913 L2.328125,29.8173913 L2.515625,29.9269565 L2.6875,29.9269565 L2.828125,29.9269565 L3.1875,29.9269565 L88.3125,29.9269565 C89.3320264,29.8966336 90.1885875,29.149933 90.359375,28.1426087 L94.296875,0.250434783 L5.625,0.36 Z" id="Path" fill="#9CADDA" opacity="0.49"></path>
                    <path d="M5.640625,0.36 L1.71875,28.1426087 L1.71875,28.1426087 L1.71875,28.1426087 C1.66049385,28.5821872 1.79110211,29.0258899 2.078125,29.3634783 L2.078125,29.3634783 C2.1384766,29.4290513 2.20670442,29.486883 2.28125,29.5356522 L2.359375,29.5356522 C2.41440845,29.5837056 2.4780297,29.6208826 2.546875,29.6452174 L2.71875,29.6452174 L2.859375,29.6452174 L3.21875,29.6452174 L88.078125,29.6452174 C89.0891197,29.6150345 89.9387709,28.8752071 90.109375,27.8765217 L94.015625,0.234782609 L5.640625,0.36 Z" id="Path" fill="#97A9D9" opacity="0.51"></path>
                    <path d="M5.65625,0.375652174 L1.765625,27.8765217 L1.765625,27.8765217 L1.765625,27.8765217 C1.71191596,28.3109258 1.84224734,28.7480114 2.125,29.0817391 L2.125,29.0817391 L2.3125,29.253913 L2.40625,29.253913 C2.46371422,29.2944271 2.52691649,29.3260832 2.59375,29.3478261 L2.75,29.3478261 L2.90625,29.3478261 L3.25,29.3478261 L87.890625,29.3478261 C88.8969393,29.3213297 89.7395948,28.5761291 89.890625,27.5791304 L93.75,0.203478261 L5.65625,0.375652174 Z" id="Path" fill="#92A5D7" opacity="0.54"></path>
                    <path d="M5.65625,0.375652174 L1.8125,27.626087 L1.8125,27.626087 L1.8125,27.626087 C1.75102116,28.0563174 1.88257224,28.4917639 2.171875,28.8156522 L2.171875,28.8156522 C2.2322266,28.8812253 2.30045442,28.9390569 2.375,28.9878261 L2.453125,28.9878261 C2.51233087,29.0253359 2.57514572,29.056798 2.640625,29.0817391 L2.796875,29.0817391 L2.953125,29.0817391 L3.296875,29.0817391 L87.671875,29.0817391 C88.6696391,29.0553561 89.5053685,28.3170531 89.65625,27.3286957 L93.484375,0.203478261 L5.65625,0.375652174 Z" id="Path" fill="#8DA1D5" opacity="0.56"></path>
                    <path d="M5.671875,0.375652174 L1.859375,27.36 L1.859375,27.36 L1.859375,27.36 C1.80583511,27.7869994 1.93016334,28.2172438 2.203125,28.5495652 L2.203125,28.5495652 L2.390625,28.7373913 L2.484375,28.7373913 C2.5382377,28.7746189 2.5958434,28.8060948 2.65625,28.8313043 L2.828125,28.8313043 L2.96875,28.8313043 L3.3125,28.8313043 L87.484375,28.8313043 C88.47359,28.8050363 89.3023943,28.0736294 89.453125,27.093913 L93.3125,0.500869565 L5.671875,0.375652174 Z" id="Path" fill="#889DD3" opacity="0.59"></path>
                    <path d="M5.6875,0.375652174 L1.90625,27.1252174 L1.90625,27.1252174 L1.90625,27.1252174 C1.84315864,27.5481044 1.96886444,27.9773922 2.25,28.2991304 L2.25,28.2991304 C2.3003304,28.3728462 2.36391221,28.4365386 2.4375,28.4869565 L2.515625,28.4869565 L2.703125,28.5808696 L2.859375,28.5808696 L3,28.5808696 L3.34375,28.5808696 L87.296875,28.5808696 C88.2751157,28.548556 89.0936293,27.8270113 89.25,26.8591304 L93,0.250434783 L5.6875,0.375652174 Z" id="Path" fill="#8399D1" opacity="0.61"></path>
                    <path d="M5.6875,0.375652174 L1.953125,26.8747826 C1.953125,26.8747826 1.953125,26.8747826 1.953125,26.8747826 L1.953125,26.8747826 C1.9126449,27.2935623 2.04217422,27.7110336 2.3125,28.0330435 L2.3125,28.0330435 C2.3728516,28.0986166 2.44107942,28.1564482 2.515625,28.2052174 L2.59375,28.2052174 C2.6476127,28.242445 2.7052184,28.2739209 2.765625,28.2991304 L2.921875,28.2991304 L3.0625,28.2991304 L3.40625,28.2991304 L87.0625,28.2991304 C88.0322014,28.2669503 88.843802,27.5522865 89,26.5930435 L92.71875,0.219130435 L5.6875,0.375652174 Z" id="Path" fill="#7E94CF" opacity="0.63"></path>
                    <path d="M5.703125,0.375652174 L2,26.6243478 C2,26.6243478 2,26.6243478 2,26.6243478 L2,26.6243478 C1.95945884,27.0357465 2.08303429,27.4465055 2.34375,27.7669565 L2.34375,27.7669565 L2.53125,27.9391304 L2.53125,27.9391304 L2.71875,28.0486957 L2.875,28.0486957 L3.015625,28.0486957 L3.34375,28.0486957 L86.828125,28.0486957 C87.7941507,28.0290735 88.6056453,27.3153025 88.75,26.3582609 L92.4375,0.234782609 L5.703125,0.375652174 Z" id="Path" fill="#7990CE" opacity="0.66"></path>
                    <path d="M5.703125,0.375652174 L2.03125,26.373913 L2.03125,26.373913 L2.03125,26.373913 C1.98213948,26.7813095 2.10696707,27.1905466 2.375,27.5008696 L2.375,27.5008696 C2.42598631,27.5696966 2.48962652,27.6281349 2.5625,27.6730435 L2.640625,27.6730435 L2.8125,27.7826087 L2.96875,27.7826087 L3.109375,27.7826087 L3.4375,27.7826087 L86.703125,27.7826087 C87.6546402,27.7556147 88.4505915,27.0505329 88.59375,26.1078261 L92.25,0.234782609 L5.703125,0.375652174 Z" id="Path" fill="#748CCC" opacity="0.68"></path>
                    <path d="M5.71875,0.375652174 L2.078125,26.1234783 L2.078125,26.1234783 L2.078125,26.1234783 C2.02494096,26.5312254 2.15026853,26.9421017 2.421875,27.2504348 L2.421875,27.2504348 L2.609375,27.4226087 L2.6875,27.4226087 L2.859375,27.5321739 L3.015625,27.5321739 L3.15625,27.5321739 L3.484375,27.5321739 L86.515625,27.5321739 C87.4561533,27.4991406 88.241821,26.8039271 88.390625,25.8730435 L92.015625,0.250434783 L5.71875,0.375652174 Z" id="Path" fill="#6F88CA" opacity="0.71"></path>
                    <path d="M5.8125,0.375652174 L2.203125,25.8730435 L2.203125,25.8730435 L2.203125,25.8730435 C2.15031939,26.2733223 2.2695818,26.6772441 2.53125,26.9843478 L2.53125,26.9843478 C2.59048474,27.0403263 2.65310315,27.092599 2.71875,27.1408696 L2.796875,27.1408696 L2.96875,27.2504348 L3.125,27.2504348 L3.25,27.2504348 L3.578125,27.2504348 L86.390625,27.2504348 C87.3020205,27.2265342 88.0778071,26.5789211 88.265625,25.6852174 L91.75,0.500869565 L5.8125,0.375652174 Z" id="Path" fill="#6A84C8" opacity="0.73"></path>
                    <path d="M5.8125,0.375652174 L2.25,25.6226087 L2.25,25.6226087 L2.25,25.6226087 C2.19773873,26.0180417 2.31720238,26.4169464 2.578125,26.7182609 L2.578125,26.7182609 C2.62763761,26.7784115 2.68552065,26.831124 2.75,26.8747826 L2.828125,26.8747826 L3,26.9843478 L3.15625,26.9843478 L3.296875,26.9843478 C3.400398,27.0007529 3.505852,27.0007529 3.609375,26.9843478 L86.1875,26.9843478 C87.091414,26.9575664 87.8566177,26.3079608 88.03125,25.4191304 L91.578125,0.375652174 L5.8125,0.375652174 Z" id="Path" fill="#6680C6" opacity="0.76"></path>
                    <path d="M5.8125,0.375652174 L2.28125,25.4191304 L2.28125,25.4191304 L2.28125,25.4191304 C2.22690713,25.8147277 2.34662425,26.2144788 2.609375,26.5147826 L2.609375,26.5147826 L2.796875,26.6713043 C2.796875,26.6713043 2.796875,26.6713043 2.796875,26.6713043 C2.84796573,26.7167762 2.90599094,26.7537656 2.96875,26.7808696 L3.109375,26.7808696 L3.25,26.7808696 C3.35354289,26.7970192 3.45895711,26.7970192 3.5625,26.7808696 L85.90625,26.7808696 C86.8110346,26.7646336 87.5774662,26.1084246 87.734375,25.2156522 L91.25,0.344347826 L5.8125,0.375652174 Z" id="Path" fill="#617CC4" opacity="0.78"></path>
                    <path d="M5.8125,0.375652174 L2.3125,25.1217391 L2.3125,25.1217391 L2.3125,25.1217391 C2.26184948,25.5144636 2.37487794,25.9107513 2.625,26.2173913 L2.625,26.2173913 L2.796875,26.3895652 L2.875,26.3895652 L3.046875,26.4991304 L3.1875,26.4991304 L3.328125,26.4991304 C3.43166789,26.5152801 3.53708211,26.5152801 3.640625,26.4991304 L85.765625,26.4991304 C86.6608828,26.4742388 87.4135777,25.8185832 87.5625,24.933913 L91.046875,0.313043478 L5.8125,0.375652174 Z" id="Path" fill="#5C78C3" opacity="0.8"></path>
                    <path d="M5.8125,0.375652174 L2.359375,24.8713043 L2.359375,24.8713043 L2.359375,24.8713043 C2.31127578,25.2590015 2.42425884,25.6494709 2.671875,25.9513043 L2.671875,25.9513043 C2.72104273,26.0162943 2.77887284,26.074225 2.84375,26.1234783 L2.921875,26.1234783 L3.078125,26.2173913 L3.234375,26.2173913 L3.359375,26.2173913 C3.46291789,26.2335409 3.56833211,26.2335409 3.671875,26.2173913 L85.5,26.2173913 C86.3916952,26.1912461 87.1391994,25.5344003 87.28125,24.6521739 L90.734375,0.28173913 L5.8125,0.375652174 Z" id="Path" fill="#5774C1" opacity="0.83"></path>
                    <path d="M5.8125,0.375652174 L2.390625,24.6208696 L2.390625,24.6208696 L2.390625,24.6208696 C2.33072565,25.0046098 2.44536701,25.3950683 2.703125,25.6852174 L2.703125,25.6852174 C2.76235974,25.7411958 2.82497815,25.7934686 2.890625,25.8417391 L2.890625,25.8417391 L3.0625,25.9356522 L3.203125,25.9356522 L3.328125,25.9356522 C3.43172231,25.9510813 3.53702769,25.9510813 3.640625,25.9356522 L85.34375,25.9356522 C86.2354452,25.9095069 86.9829494,25.2526611 87.125,24.3704348 L90.53125,0.250434783 L5.8125,0.375652174 Z" id="Path" fill="#5270BF" opacity="0.85"></path>
                    <path d="M5.8125,0.375652174 L2.4375,24.3704348 C2.4375,24.3704348 2.4375,24.3704348 2.4375,24.3704348 L2.4375,24.3704348 C2.39261187,24.7482321 2.50571969,25.1278022 2.75,25.4191304 L2.75,25.4191304 L2.921875,25.5756522 L3,25.5756522 L3.15625,25.6695652 L3.296875,25.6695652 L3.4375,25.6695652 C3.53578556,25.6859125 3.63608944,25.6859125 3.734375,25.6695652 L85.171875,25.6695652 C86.0565495,25.6410154 86.7937248,24.9816784 86.921875,24.1043478 L90.28125,0.234782609 L5.8125,0.375652174 Z" id="Path" fill="#4D6BBD" opacity="0.88"></path>
                    <path d="M5.8125,0.375652174 L2.453125,24.12 L2.453125,24.12 L2.453125,24.12 C2.41194061,24.4974691 2.52462193,24.8756081 2.765625,25.1686957 L2.765625,25.1686957 C2.81513761,25.2288463 2.87302065,25.2815588 2.9375,25.3252174 L2.9375,25.3252174 L3.109375,25.4191304 L3.25,25.4191304 L3.375,25.4191304 L3.671875,25.4191304 L84.921875,25.4191304 C85.8056655,25.3958517 86.5412386,24.7320207 86.65625,23.853913 L89.984375,0.234782609 L5.8125,0.375652174 Z" id="Path" fill="#4867BB" opacity="0.9"></path>
                    <path d="M5.8125,0.375652174 L2.484375,23.853913 L2.484375,23.853913 L2.484375,23.853913 C2.43612533,24.2271954 2.54989638,24.6032928 2.796875,24.8869565 L2.796875,24.8869565 L2.96875,25.0434783 L3.046875,25.0434783 L3.203125,25.1373913 L3.34375,25.1373913 L3.46875,25.1373913 L3.765625,25.1373913 L84.734375,25.1373913 C85.6147977,25.1130708 86.3452965,24.4478261 86.453125,23.5721739 L89.75,0.203478261 L5.8125,0.375652174 Z" id="Path" fill="#4363B9" opacity="0.93"></path>
                    <path d="M5.8125,0.375652174 L2.53125,23.6191304 L2.53125,23.6191304 L2.53125,23.6191304 C2.4835028,23.9875855 2.59748991,24.3586878 2.84375,24.6365217 L2.84375,24.6365217 C2.89326261,24.6966724 2.95114565,24.7493849 3.015625,24.7930435 L3.015625,24.7930435 L3.171875,24.8869565 L3.3125,24.8869565 L3.4375,24.8869565 L3.734375,24.8869565 L84.5625,24.8869565 C85.4079438,24.860215 86.1156818,24.236585 86.25,23.4 L89.515625,0.28173913 L5.8125,0.375652174 Z" id="Path" fill="#3E5FB8" opacity="0.95"></path>
                    <path d="M5.8125,0.375652174 L2.5625,23.3686957 L2.5625,23.3686957 L2.5625,23.3686957 C2.51514464,23.729675 2.62306134,24.0938161 2.859375,24.3704348 L2.859375,24.3704348 L3.015625,24.5113043 L3.09375,24.5113043 L3.25,24.6052174 L3.390625,24.6052174 L3.5,24.6052174 L3.796875,24.6052174 L84.3125,24.6052174 C85.152975,24.5798739 85.8589979,23.9643039 86,23.133913 L89.21875,0.266086957 L5.8125,0.375652174 Z" id="Path" fill="#395BB6" opacity="0.98"></path>
                    <path d="M5.8125,0.375652174 L2.6875,23.1182609 L2.6875,23.1182609 L2.6875,23.1182609 C2.63191579,23.4750574 2.74113347,23.8378301 2.984375,24.1043478 L2.984375,24.1043478 C3.03773553,24.1559214 3.09521896,24.2030351 3.15625,24.2452174 L3.15625,24.2452174 L3.3125,24.3391304 L3.453125,24.3391304 L3.578125,24.3391304 L3.859375,24.3391304 L84.140625,24.3391304 C84.9725687,24.313928 85.6716825,23.7052303 85.8125,22.8834783 L88.9375,0.266086957 L5.8125,0.375652174 Z" id="Path" fill="#3457B4"></path>
                </g>
                <path d="M201.435307,136.999526 L114.782343,136.999526 C114.261727,137.011591 113.762962,136.793027 113.422818,136.403766 C113.082674,136.014506 112.936852,135.495406 113.025339,134.988812 L119.244823,92.0117293 C119.431371,90.8750899 120.411066,90.0304818 121.577129,90.0010158 L208.214545,90.0010158 C208.737011,89.983215 209.239494,90.2001425 209.580956,90.5909111 C209.922418,90.9816796 210.066054,91.50417 209.971549,92.0117293 L203.752065,134.988812 C203.555484,136.113791 202.590717,136.951112 201.435307,136.999526 L201.435307,136.999526 Z" id="Path" fill="#FEFEFF"></path>
                <path d="M208.447681,90 L208.447681,90 L202.227733,133.013443 C202.04901,134.15362 201.076011,135.006712 199.910803,135.044847 L113.313588,135.044847 L113.018141,135.044847 C112.944432,135.544203 113.097597,136.050259 113.436553,136.42728 C113.77551,136.804301 114.265566,137.013697 114.775276,136.999304 L201.43469,136.999304 C202.596115,136.957856 203.569325,136.116688 203.76717,134.983289 L209.987117,91.8928993 C210.04377,91.4385217 209.912048,90.9808089 209.621996,90.6241588 C209.331943,90.2675087 208.908295,90.0423362 208.447681,90 Z" id="Path" fill="#B3CDFA"></path>
                <polygon id="Path" fill="#E3EDFE" points="128.656593 98 124 98 124.32967 95 129 95"></polygon>
                <polygon id="Path" fill="#D1E1FC" points="203.625998 101 163 101 163.389586 98 204 98"></polygon>
                <polygon id="Path" fill="#D1E1FC" points="201.610414 109 161 109 161.374002 106 202 106"></polygon>
                <polygon id="Path" fill="#D1E1FC" points="200.625998 117 160 117 160.374002 114 201 114"></polygon>
                <polygon id="Path" fill="#D1E1FC" points="182.620553 124 159 124 159.395257 121 183 121"></polygon>
                <polygon id="Path" fill="#E3EDFE" points="127.669421 105 123 105 123.330579 102 128 102"></polygon>
                <polygon id="Path" fill="#E3EDFE" points="126.669421 112 122 112 122.330579 109 127 109"></polygon>
                <polygon id="Path" fill="#E3EDFE" points="124.67033 119 120 119 120.343407 116 125 116"></polygon>
                <polygon id="Path" fill="#E3EDFE" points="123.656593 126 119 126 119.32967 123 124 123"></polygon>
                <polygon id="Path" fill="#E3EDFE" points="122.669421 134 118 134 118.330579 131 123 131"></polygon>
                <path d="M146.676776,99.0039763 L145,111.309338 L145,111.309338 L152.167106,120 C154.663488,117.778907 156.315271,114.7089 156.826466,111.340102 L156.826466,111.340102 C157.388619,108.244952 156.569194,105.052361 154.597566,102.656008 C152.625939,100.259655 149.713966,98.9170342 146.676776,99.0039763 L146.676776,99.0039763 Z" id="Path" fill="#00AEF3"></path>
                <path d="M135.83023,102.555 C133.24058,104.715194 131.527116,107.710954 131,111 L143.267251,111 L143.267251,111 L145,99 C141.603471,99.056218 138.343982,100.319879 135.83023,102.555 Z" id="Path" fill="#FFAE21"></path>
                <path d="M144.507688,112 L144.507688,112 L132.174665,112 L132.174665,112 C131.599911,115.017937 132.45992,118.126762 134.514089,120.456719 C136.568258,122.786675 139.595996,124.087556 142.750233,123.995416 C146.166221,123.956152 149.452039,122.715089 152,120.501751 L144.507688,112 Z" id="Path" fill="#3B1993"></path>
                <path d="M348.069909,378 L325,378 C325,378 328.510638,369.872392 331.079027,369.521669 C335.881459,368.896469 336.534954,359 336.534954,359 L349.057751,359 C347.36186,362.068709 347.737125,365.870442 350,368.545746 L348.069909,378 Z" id="Path" fill="#FFCEBD"></path>
                <g id="Group" opacity="0.4" transform="translate(332.000000, 359.000000)" fill="#A58877">
                    <path d="M18.1748951,9.64615385 C15.8997877,6.94702045 15.5224947,3.11142586 17.2275524,0.0153846154 L12.9797902,0.0153846154 C12.720035,0.984615385 12.4755594,1.93846154 12.2005245,2.89230769 C11.4248699,6.01536467 10.0832365,8.96740152 8.24307692,11.6 C6.91374126,13.3230769 0.710174825,15.8615385 0.603216783,17 C0.666964646,17.9149147 1.18385719,18.7360549 1.97839161,19.1846154 L16.2038112,19.1846154 L18.1748951,9.64615385 Z" id="Path"></path>
                </g>
                <path d="M350,368 L350,381.33027 C350.004077,382.30198 349.639486,383.235373 348.986831,383.924004 C348.334177,384.612635 347.447242,384.999757 346.522195,384.999748 L301.6976,384.999748 C301.124112,385.00995 300.585797,384.710158 300.271995,384.205817 C299.958194,383.701476 299.912854,383.063222 300.151924,382.515544 L300.151924,382.515544 C300.943994,380.434508 302.58383,378.837104 304.618927,378.164128 L320.075684,373.520453 L330.756303,369.022907 L330.756303,369.022907 C332.42099,372.718752 335.968066,375.072043 339.860333,375.062932 L340.045814,375.062932 C343.32563,375.063747 346.400009,373.385378 348.284266,370.565387 L350,368 Z" id="Path" fill="#B3CDFA"></path>
                <path d="M346.491282,383.29897 L301.666686,383.29897 C301.088098,383.300324 300.55003,383.017382 300.244665,382.551203 L300.151924,382.756473 C299.912854,383.25104 299.958194,383.8274 300.271995,384.282833 C300.585797,384.738265 301.124112,385.008985 301.6976,384.999772 L346.522195,384.999772 C347.447242,384.999781 348.334177,384.6502 348.986831,384.028348 C349.639486,383.406497 350.004077,382.563619 350,381.68614 L350,380 C350,380.880046 349.629355,381.723626 348.970445,382.343153 C348.311535,382.96268 347.418988,383.306793 346.491282,383.29897 Z" id="Path" fill="#FFFFFF"></path>
                <path d="M355.528817,245.178604 C355.528817,245.178604 341.678791,280.051722 339.12423,307.817337 C336.615836,335.814718 338.493284,349.952468 335,361 L350.388918,361 C353.866814,343.926542 357.098487,340.419144 358.421934,333.01807 C359.560721,325.732216 360.034615,318.357186 359.837714,310.984811 C359.837714,310.984811 390.015383,267.103706 390,243 L355.528817,245.178604 Z" id="Path" fill="#00AEF3"></path>
                <g id="Group" opacity="0.2" transform="translate(344.000000, 242.000000)" fill="#0C4DA4">
                    <path d="M12.1747413,2.21298701 C17.1023128,9.38181818 20.9211808,17.2051948 21.0597687,25.8077922 C21.3061473,39.225974 13.3604382,48.2181818 7.30876446,59.2363636 C5.60179387,62.084782 4.34938236,65.1878377 3.59768716,68.4311688 C2.7507608,72.7012987 3.41290323,77.1116883 3.78247109,81.4441558 C4.93115712,94.1394 3.73005398,106.940113 0.240779063,119.18961 L5.95368229,119.18961 C9.43377967,101.968831 12.6674985,98.4311688 13.9917833,90.9662338 C15.1312918,83.6175128 15.6054855,76.1788463 15.4084601,68.7428571 C15.4084601,68.7428571 45.6052343,24.4831169 45.5898416,0.171428571 L12.1747413,2.21298701 Z" id="Path"></path>
                </g>
                <path d="M420.714464,359.179919 C420.714464,359.179919 421.914428,367.218804 419.394504,370.055136 C414.429654,375.602438 404.034969,378 404.034969,378 C404.034969,378 403.299991,369.428323 404.499955,367.03076 C407.499864,361.06036 403,354.619849 403,354.619849 L415.434624,351 C415.434624,351 414.879641,358.255369 420.714464,359.179919 Z" id="Path" fill="#FFCEBD"></path>
                <g id="Group" opacity="0.4" transform="translate(403.000000, 353.000000)" fill="#A58877">
                    <path d="M3.95714286,23.22 C7.86249588,20.1949434 9.81287855,15.1186995 9,10.095 C8.19453489,6.88745127 6.88097187,3.84500751 5.11428571,1.095 L4.7,0.285 L0.2,1.605 C0.2,1.605 4.48571429,7.77 1.62857143,13.485 C0.628571429,15.54 1.02857143,22.035 1.15714286,23.67 L2.21428571,23.775 C2.68571429,23.625 3.28571429,23.445 3.95714286,23.22 Z" id="Path"></path>
                </g>
                <path d="M421.120295,359 L428.638781,371.681505 C429.070295,372.505732 429.117494,373.476035 428.767987,374.337715 C428.418481,375.199396 427.707177,375.866395 426.820787,376.16363 L397.979378,385.892746 C397.761229,385.966611 397.531948,386.002828 397.301482,386 L384.452265,386 C383.942081,385.561112 383.505258,385.044777 383.158099,384.470092 C382.78796,383.721801 383.089426,382.817021 383.835996,382.435545 L394.62071,377.402715 C396.584813,376.497205 398.282254,375.106759 399.550865,373.364214 L404.4348,366.663974 L407.300453,368.65263 C409.507898,370.194778 412.324057,370.59829 414.880567,369.738742 L414.880567,369.738742 C417.951334,368.716955 420.164896,366.043898 420.581059,362.854933 L421.120295,359 Z" id="Path" fill="#B3CDFA"></path>
                <path d="M428.638987,371.405401 L428.408018,371 C428.418953,372.40319 427.545725,373.657448 426.236908,374.118467 L397.396555,384.159929 C397.176761,384.227735 396.948769,384.264464 396.719046,384.269075 L383.877159,384.269075 C383.573365,383.99292 383.299763,383.6845 383.061068,383.349128 C382.948302,383.714261 382.993038,384.110637 383.184251,384.440591 C383.531212,385.026357 383.967786,385.552649 384.477679,385.999824 L397.319566,385.999824 C397.5499,386.002883 397.77905,385.965967 397.997075,385.890678 L426.82203,375.973954 C427.707914,375.670988 428.418813,374.991127 428.76812,374.11283 C429.117427,373.234534 429.070255,372.245521 428.638987,371.405401 Z" id="Path" fill="#FFFFFF"></path>
                <path d="M406.315301,239 L407.675425,249.222949 C408.370943,254.435256 406.825348,259.787179 405.202473,265.092564 C403.656878,270.165256 402.31221,275.501667 403.007728,280.760513 C404.352396,290.983462 399.669243,311.398333 399.669243,311.398333 C399.669243,311.398333 405.078825,316.052179 408.72643,326.275128 C410.51932,331.254744 411.987635,342.780769 418,353.220897 L403.316847,360 L381.833076,316.052179 L368,241.31141 L406.315301,239 Z" id="Path" fill="#00AEF3"></path>
                <g id="Group" opacity="0" transform="translate(367.000000, 238.000000)" fill="#0C4DA4">
                    <path d="M0.502857143,3.02683544 L14.5671429,77.4313924 L36.41,121.196962 L43.3242857,118.108354 C42.8214286,117.212658 42.2871429,116.332405 41.7528571,115.452152 C37.7581694,108.672412 34.3871773,101.555825 31.68,94.1870886 C29.9514286,89.5541772 28.4585714,84.6432911 25.5514286,80.5663291 C24.6683032,79.4846648 23.8946403,78.3209273 23.2414286,77.0916456 C22.8265365,76.1305272 22.5514539,75.1167735 22.4242857,74.0802532 C20.9314286,64.644557 24.5614286,55.2243038 25.2842857,45.7113924 C25.8185714,38.9010127 24.8285714,31.9362025 26.2585714,25.203038 C27.6885714,18.4698734 29.4014286,15.7364557 35.7814286,13.2192405 C37.5463054,12.5530249 39.2239001,11.6820467 40.7785714,10.6248101 L39.4428571,0.756708861 L0.502857143,3.02683544 Z" id="Path"></path>
                </g>
                <path d="M373.45925,178.890428 L397,179 C397,179 390.813206,130.365476 394.07674,107.464829 C394.509816,104.506372 385.585366,116.63761 385.074955,116.63761 L379.259369,116.63761 C377.535872,116.396508 375.801292,116.244994 374.062463,116.183667 C375.339817,117.015788 376.20618,118.359446 376.444378,119.877825 C376.725128,122.094055 376.787302,124.333056 376.629982,126.561745 C376.552647,128.440131 371,136.955477 371,138.67733 C371,140.743554 373.45925,176.839857 373.45925,178.890428 Z" id="Path" fill="#FFCEBD"></path>
                <path d="M394.169542,133 C395.283165,151.015267 397,179 397,179 L373.45925,178.89313 C373.45925,176.89313 371,141.687023 371,139.671756 C371.457713,138.052312 372.156167,136.50881 373.072576,135.091603 C381.25461,138.877863 389.854253,135.412214 394.169542,133 Z" id="Path" fill="#FFFFFF"></path>
                <path d="M369.268474,118.296163 C369.34997,119.094411 369.742418,119.826776 370.358845,120.330951 C370.975272,120.835126 371.764768,121.069473 372.552366,120.982055 C374.555073,120.530342 376.583907,120.206977 378.626794,120.013885 L378.626794,120.013885 C382.855446,120.326206 387.021815,118.842893 390.12752,115.919387 C393.233226,112.995881 394.99838,108.895654 395,104.601234 L395,91 L368.682616,91 C368.841503,93.1415306 368.841503,95.2921187 368.682616,97.4336494 C368.574694,100.260083 366.046252,106.927967 366,108.551995 C366,109.067311 368.374269,109.442087 368.389686,109.613859 L369.268474,118.296163 Z" id="Path" fill="#FFCEBD"></path>
                <path d="M393.172251,121 L395.512026,122.209805 L396.962686,124.660435 C398.626548,127.45337 401.11571,129.668494 404.0912,131.004155 L406.58696,132.120897 C412.119681,134.598004 416.194397,139.473756 417.630697,145.335688 L422.138663,163.746434 C425.246479,176.437002 425.829354,189.609285 423.854498,202.522227 L417.381121,233 L406.462172,233 L405.666648,187.616812 C405.618042,185.227818 405.372847,182.846788 404.933519,180.497577 L404.637148,178.946545 L375,178.791442 C375,178.791442 377.932518,141.814846 384.359099,136.913585 L381.722953,134.897244 L387.603587,132.415593 C389.417966,131.643023 390.731505,130.029247 391.113249,128.103725 C391.229907,127.412969 391.386146,126.729402 391.581204,126.056363 L393.172251,121 Z" id="Path" fill="#4D5068"></path>
                <path d="M377,127 L374.42242,128.244391 L365.012698,134.264134 C361.683116,136.378181 358.883315,139.230803 356.829657,142.601555 C351.674496,151.032306 342.451106,167.753814 343.025627,178.486689 L375.633572,179 C375.633572,179 377.667686,154.112175 374.437947,143.223751 C373.622716,140.573502 373.622716,137.738793 374.437947,135.088543 L377,127 Z" id="Path" fill="#4D5068"></path>
                <rect id="Rectangle" fill="#E6E7E8" x="412" y="188" width="5" height="52"></rect>
                <rect id="Rectangle" fill="#E03C00" x="412" y="214" width="5" height="26"></rect>
                <path d="M368.232759,109.60793 L369.163793,118.294755 C369.245817,119.093419 369.640808,119.826165 370.26123,120.330602 C370.881652,120.83504 371.676264,121.069509 372.468966,120.982046 C373.803481,120.773738 375.124714,120.48681 376.425862,120.122738 C377.501872,119.974332 378.592955,119.974332 379.668966,120.122738 C380.159404,120.124918 380.64858,120.072521 381.127586,119.9665 C382.462069,119.700895 383.781034,119.357172 385.084483,118.966578 C385.321053,118.919916 385.534622,118.7931 385.689655,118.60723 C385.79209,118.427427 385.835534,118.219652 385.813793,118.013527 C385.876988,116.806721 385.591318,115.607352 384.991379,114.56067 C384.355172,113.420133 383.331034,112.560825 382.803448,111.357794 C382.482213,110.541626 382.227914,109.700337 382.043103,108.842364 C381.902939,108.386353 381.824644,107.913356 381.810345,107.436223 C381.825398,106.227729 382.577913,105.153311 383.703448,104.733308 C384.850586,104.352543 386.110149,104.771053 386.806897,105.764478 C387.169283,106.442058 387.415829,107.176213 387.536207,107.936184 C388.150659,109.923441 389.100781,111.789164 390.344828,113.451381 C390.639655,113.873223 393.448276,117.622932 393.774138,117.32608 L393.774138,117.32608 C393.92931,113.966966 394.177586,110.857832 394.581034,108.12367 C394.855733,106.966933 394.996326,105.782032 395,104.592694 L395,97.7182281 C393.515298,95.495701 391.327896,93.8438846 388.793103,93.0310922 L382.431034,91 C382.431034,91 369.644828,91 369.660345,91 C370.323442,92.1510796 371.103489,93.2296999 371.987931,94.2185 C372.977748,95.5455608 374.118247,96.751569 375.386207,97.8119708 C376.209697,98.4251292 376.968811,99.1213992 377.651724,99.8899344 C378.623643,101.250201 379.105368,102.903722 379.017241,104.57707 C379.017241,106.139449 378.318966,107.701828 378.241379,109.264206 C378.241379,110.389119 378.567241,111.560903 377.682759,112.529578 C376.857981,113.277572 375.630238,113.355237 374.718966,112.717063 C373.854501,112.064263 373.179401,111.190317 372.763793,110.18601 C371.87931,108.358027 370.901724,108.436146 369.07069,108.967354 C368.693671,109.086294 368.333721,109.254374 368,109.467315 C368.155172,109.545434 368.232759,109.576682 368.232759,109.60793 Z" id="Path" fill="#4D5068"></path>
                <path d="M365.989419,82.9048681 C369.289231,82.6414655 372.510849,82.9048681 375.904494,81.7273034 C377.550569,81.0970704 379.238316,80.579381 380.955865,80.1778762 C386.087118,79.3086305 391.225466,81.678177 393.857973,86.1276767 C396.410572,86.1571696 398.655718,87.8067101 399.425429,90.2181646 C400.108564,92.5950685 400.183808,95.1030596 399.644373,97.5159669 C399.469749,98.9662849 399.074286,100.382008 398.471454,101.714915 C397.845898,102.954457 395.343671,106.657588 393.607751,105.898368 C392.60686,105.464529 391.652886,101.250087 390.808384,100.165487 C388.243601,96.8342189 384.06801,95.3622631 380.048808,94.6805151 C374.825409,93.7818473 368.538563,93.3170191 364.597556,89.3659797 C362.877275,87.6616097 360.203019,83.8035359 363.737415,83.1682707 C364.503722,83.0443165 365.238751,82.9668452 365.989419,82.9048681 Z" id="Path" fill="#4D5068"></path>
                <g id="Group" opacity="0.3" transform="translate(350.000000, 158.000000)" fill="#272834">
                    <path d="M21.692,33.5114634 C20.44064,37.6331707 12.4256,34.7385366 9.78032,33.5114634 C6.428016,31.6659379 3.33394329,29.3916601 0.57728,26.7468293 L0.57728,23.6004878 L5.70944,15.7346341 C6.91396085,14.1083247 7.81524931,12.2807745 8.37056,10.3386585 C8.92496,7.85304878 7.97456,4.51792683 9.3368,2.25256098 C11.09504,-0.705 12.0296,0.585 12.71072,3.08634146 C14.29472,8.65536585 12.17216,14.6176829 14.57984,20.1080488 C15.46688,22.137439 18.39728,25.2365854 20.2664,28.2413415 C21.4365148,29.7358433 21.9504616,31.6357888 21.692,33.5114634 Z" id="Path"></path>
                </g>
                <g id="Group" opacity="0.3" transform="translate(378.000000, 156.000000)" fill="#272834">
                    <path d="M26.8916129,26.3301984 L20.5432258,32.2175298 C19.5520145,34.2738731 17.6276926,35.697797 15.4025806,36.0214087 C13.2103817,36.3077795 10.9868067,36.2224473 8.82193548,35.768869 C6.05032258,35.3584921 2.93806452,34.7429266 1.38967742,32.3595833 C-0.158709677,29.9762401 0.398709677,27.2614385 0.894193548,24.657123 C1.38967742,22.0528075 2.11741935,18.7224405 4.3316129,16.8915278 C7.32,14.4292659 12.3987097,14.9027778 14.3341935,11.5250595 C15.4645161,9.55209325 14.9845161,7.07404762 15.2322581,4.80119048 C15.48,2.52833333 17.4154839,-0.0286309524 19.5058065,0.776339286 C20.363444,1.18716649 21.0417753,1.9067427 21.4103226,2.79665675 C22.575467,5.6660261 23.2358721,8.72211506 23.3612903,11.8249504 C23.9837509,16.7829441 25.1684465,21.6505736 26.8916129,26.3301984 L26.8916129,26.3301984 Z" id="Path"></path>
                </g>
                <rect id="Rectangle" fill="url(#linearGradient-3)" x="287" y="179" width="163" height="71" rx="5.32"></rect>
                <rect id="Rectangle" fill="#E3EDFE" x="430" y="188" width="5" height="52"></rect>
                <rect id="Rectangle" fill="#E3EDFE" x="421" y="188" width="5" height="52"></rect>
                <rect id="Rectangle" fill="#E3EDFE" x="403" y="188" width="5" height="52"></rect>
                <rect id="Rectangle" fill="#E3EDFE" x="393" y="188" width="5" height="52"></rect>
                <rect id="Rectangle" fill="#E3EDFE" x="384" y="188" width="5" height="52"></rect>
                <rect id="Rectangle" fill="#E3EDFE" x="375" y="188" width="5" height="52"></rect>
                <rect id="Rectangle" fill="#E3EDFE" x="365" y="188" width="5" height="52"></rect>
                <rect id="Rectangle" fill="#E3EDFE" x="356" y="188" width="5" height="52"></rect>
                <rect id="Rectangle" fill="#E3EDFE" x="347" y="188" width="5" height="52"></rect>
                <rect id="Rectangle" fill="#E3EDFE" x="337" y="188" width="5" height="52"></rect>
                <rect id="Rectangle" fill="#00AEF3" x="430" y="227" width="5" height="13"></rect>
                <rect id="Rectangle" fill="#00AEF3" x="421" y="214" width="5" height="26"></rect>
                <rect id="Rectangle" fill="#FF0084" x="403" y="197" width="5" height="43"></rect>
                <rect id="Rectangle" fill="#FFAE21" x="393" y="206" width="5" height="34"></rect>
                <rect id="Rectangle" fill="#FF0084" x="384" y="228" width="5" height="12"></rect>
                <rect id="Rectangle" fill="#FF0084" x="375" y="206" width="5" height="34"></rect>
                <rect id="Rectangle" fill="#FF0084" x="365" y="224" width="5" height="16"></rect>
                <rect id="Rectangle" fill="#00AEF3" x="356" y="214" width="5" height="26"></rect>
                <rect id="Rectangle" fill="#FFAE21" x="347" y="203" width="5" height="37"></rect>
                <rect id="Rectangle" fill="#00AEF3" x="337" y="199" width="5" height="41"></rect>
                <rect id="Rectangle" fill="url(#linearGradient-4)" x="298" y="190" width="34" height="5"></rect>
                <rect id="Rectangle" fill="#D1E1FC" x="298" y="205" width="34" height="3"></rect>
                <rect id="Rectangle" fill="#D1E1FC" x="298" y="211" width="34" height="3"></rect>
                <rect id="Rectangle" fill="#D1E1FC" x="298" y="217" width="34" height="3"></rect>
                <rect id="Rectangle" fill="#D1E1FC" x="297" y="224" width="17" height="3"></rect>
                <path d="M373,179.516109 L372.705307,176.788749 C372.503562,175.146981 370.986905,173.930914 369.231034,174.003049 L369.231034,174.003049 L368.579607,175.09691 L356.574751,174.907307 C355.796604,174.898371 355.056918,175.22488 354.567099,175.793519 C354.077279,176.362157 353.891223,177.110353 354.062107,177.82427 L354.667003,179.939069 C354.951604,181.01008 355.974647,181.761648 357.148627,181.762171 L358.125766,181.762171 C358.11749,182.618203 358.473335,183.441852 359.114152,184.049916 C359.754969,184.65798 360.627619,185 361.537999,185 L366.004922,185 C367.889447,185 369.417155,183.563434 369.417155,181.79134 L369.417155,179.195243 L373,179.516109 Z" id="Path" fill="#FFCEBD"></path>
                <path d="M394,121 L396.278924,122.210475 L400.18348,128.961203 L407.065831,132.064985 C412.454662,134.543465 416.423406,139.421919 417.822352,145.2871 L422.213078,163.70805 C425.240069,176.405652 425.807785,189.585236 423.884289,202.505335 L417.579266,233 L406.944288,233 L406.169454,187.591659 C406.169454,185.201746 403.844951,171.622696 403.844951,171.622696 L394,121 Z" id="Path" fill="#4D5068"></path>
                <path d="M416.799202,233 L418,249.565889 L418,249.565889 C417.635245,251.341492 416.295046,252.750898 414.549606,253.194462 L414.093607,253.316945 L404.669623,253.990604 C403.052257,254.095856 401.505091,253.310793 400.626429,251.939006 L399.942431,250.851965 C399.323954,249.901323 398.996262,248.788659 399,247.652085 L399,245.600487 C399.000324,243.229216 400.000404,240.969641 401.751228,239.384451 L407.648818,234.010489 L407.648818,233 L416.799202,233 Z" id="Path" fill="#FFCEBD"></path>
                <g id="Group" opacity="0.4" transform="translate(395.000000, 122.000000)" fill="#272834">
                    <path d="M29.5332571,80.6042808 C31.5517112,67.631501 30.9559678,54.3981774 27.7795429,41.6488014 L23.1720571,23.2462329 C21.704049,17.3571369 17.5393782,12.4587915 11.8845143,9.97020548 L4.6624,6.85376712 L0.628857143,0.184589041 C1.12551147,4.78067631 2.66703934,9.21013507 5.14068571,13.1489726 C7.97851429,17.3094178 12.2193143,20.3946918 15.2644,24.4304795 C20.7965714,31.7385274 21.8806857,41.290411 22.7575429,50.3592466 C24.1286286,64.3832192 25.4837714,78.6097603 22.3430286,92.322089 C21.1792,97.3863014 19.3936,102.357021 18.8834286,107.530308 C18.7556082,108.793617 18.7236351,110.064441 18.7877714,111.332363 L22.9169714,111.332363 L29.5332571,80.6042808 Z" id="Path"></path>
                </g>
                <g id="Group" opacity="0.4" transform="translate(413.000000, 232.000000)" fill="#A58877">
                    <path d="M1.33371429,0.60896 C1.7563732,2.97989078 1.91168199,5.39290618 1.79657143,7.80032 C1.54971429,9.55856 0.809142857,11.22176 0.546857143,12.98 C0.271640374,15.9489395 1.01368832,18.9234605 2.64514286,21.39104 C4.22257128,20.8128114 5.39214391,19.431936 5.73085714,17.74784 L4.512,0.60896 L1.33371429,0.60896 Z" id="Path"></path>
                </g>
                <path d="M372,176.931043 L372,176.704717 C371.79764,175.11242 370.276354,173.932995 368.515125,174.002957 L367.861711,175.063858 L355.820225,174.879968 C355.13598,174.866018 354.47632,175.112083 354,175.558945 C354.333091,175.795352 354.699316,175.990385 355.089023,176.138904 C356.58694,176.612425 358.191086,176.738832 359.756266,176.506682 C361.298224,176.267465 362.859278,176.144454 364.423509,176.138904 C367.00605,176.252066 369.588591,177.270531 372,176.931043 Z" id="Path" fill="#FFE2D7"></path>
                <g id="Group_33" transform="translate(0.000000, 124.000000)">
                    <path d="M156.823916,245.546193 L168.560837,250.755187 L187.355456,255.561105 C189.781402,256.098929 191.507048,258.245237 191.506129,260.72359 L191.506129,260.72359 L136.676831,260.491045 L138.013752,250.910217 L145.786547,245.546193 L156.823916,245.546193 Z" id="Path_54" fill="#FFCEBD"></path>
                    <path d="M162.233782,254.987495 L168.560837,250.755187 L186.966816,253.855779 C189.391928,254.398383 191.490583,258.227613 191.490583,260.708087 L191.490583,260.708087 L136.661286,260.475542 L138.013752,250.894714 L142.490882,254.80146 L150.263677,254.80146 C153.932436,255.421578 159.015845,256.739329 162.233782,254.987495 Z" id="Path_55" fill="#FF0084"></path>
                    <polygon id="Path_56" fill="#FFCEBD" points="140.298954 250.910217 156.823916 246.739921 156.823916 223.997081 140.298954 223.997081"></polygon>
                    <path d="M23.5982063,182.80572 C23.5982063,182.80572 128.344395,145.040513 140.547683,149.706903 C140.547683,149.706903 156.093274,149.706903 159.482212,174.511637 L158.875934,228.058856 L138.355755,228.058856 L132.930344,187.177554 C132.188514,184.894429 129.734733,183.639708 127.44275,184.371519 C127.165127,184.458328 126.898951,184.578039 126.649925,184.728087 L63.3016442,219.919803 L23.5982063,182.80572 Z" id="Path_57" fill="url(#linearGradient-5)"></path>
                    <g id="Group_27" opacity="0.2" transform="translate(52.855007, 165.008323)" fill="#6C98E3">
                        <path d="M0.73064275,41.6099408 L5.13004484,34.9281657 C21.2393223,28.590794 36.4849365,20.257088 50.5076233,10.123432 C54.4566363,6.92679536 58.8040924,4.25356362 63.4415546,2.1704142 C68.1585117,0.0805978354 73.5779734,0.275049034 78.1321375,2.69751479 C80.6555781,4.40428527 82.7126049,6.71142808 84.1171898,9.41029586 C89.8379671,19.456213 90.335426,31.6105325 89.6825112,43.1447337 C89.309417,49.78 88.5787743,56.4462722 88.3922272,63.0815385 L85.5007474,63.0815385 L80.0908819,22.2157396 C79.7381132,21.1166778 78.9610285,20.2029338 77.9313308,19.6764064 C76.9016331,19.1498789 75.704083,19.0539098 74.6032885,19.4097041 C74.3222985,19.494021 74.0512682,19.6083732 73.7949178,19.7507692 L11.768012,54.2138462 C6.5041734,51.7092322 2.51053289,47.1487735 0.73064275,41.6099408 Z" id="Path_58"></path>
                    </g>
                    <path d="M79.6245142,192.44856 L142.941704,231.345483 C146.715763,233.666924 149.011123,237.775502 149.004499,242.197554 L149.004499,245.933767 C149.004499,254.136209 142.336806,260.785602 134.111809,260.785602 L134.111809,260.785602 L48.0669656,256.537791 L48.0669656,231.500513 C48.0669656,231.500513 21.6394619,221.253057 23.0074738,199.36288 L79.6245142,192.44856 Z" id="Path_59" fill="url(#linearGradient-6)"></path>
                    <polygon id="Path_60" fill="#FFCEBD" points="43.4499253 229.314596 0.171001495 260.770099 0.171001495 260.770099 48.0669656 256.537791 48.0669656 231.48501"></polygon>
                    <path d="M43.4499253,229.314596 L48.1136024,231.531519 L48.1136024,242.244063 L48.1136024,242.244063 C45.2248476,240.860389 41.8363224,240.993933 39.0660688,242.600631 L17.7219731,258.770217 C16.0297306,260.045721 13.9669544,260.73687 11.8457399,260.739093 L0.186547085,260.739093 L43.4499253,229.314596 Z" id="Path_61" fill="#FF0084"></path>
                    <g id="Group_28" opacity="0.2" transform="translate(42.847534, 192.236686)" fill="#6C98E3">
                        <path d="M36.7769806,0.211873767 L100.09417,39.1087968 C103.871342,41.4253603 106.163514,45.5387796 106.141564,49.9608679 L106.141564,53.6970809 C106.145531,57.634606 104.579945,61.4122689 101.789495,64.1979746 C98.9990442,66.9836804 95.2126302,68.5489152 91.264275,68.5489152 L91.264275,68.5489152 L5.21943199,64.3011045 L5.21943199,49.7903353 C6.23527196,48.8070118 7.39336619,47.9813236 8.65500747,47.3408679 C11.028948,46.2949216 13.5994245,45.7663799 16.1946188,45.790572 C34.5384155,45.3254832 52.058296,57.6968442 70.122272,54.4412229 C71.6282092,54.301434 73.0472967,53.675482 74.1641256,52.6583826 C75.343115,51.0866962 75.706367,49.0511635 75.1434978,47.1703353 C73.4179372,39.0932939 65.2098655,34.3958974 57.8101644,30.7061933 C43.819133,23.7298619 29.6104634,16.7535306 14.2825112,13.978501 C11.302626,13.6992111 8.40209377,12.8629931 5.73243647,11.5135306 C3.26474608,9.89123197 1.45709511,7.44550422 0.63348281,4.614714 L36.7769806,0.211873767 Z" id="Path_62"></path>
                    </g>
                    <path d="M79.2825112,47.9299803 C79.2825112,47.9299803 75.8780269,67.5412229 83.7440957,79.1374359 L55.8863976,76.5639448 L67.0170404,41.2327022 L79.2825112,47.9299803 Z" id="Path_63" fill="#FFCEBD"></path>
                    <path d="M43.8541106,85.4936489 C49.6681614,103.36856 17.1778774,199.579921 17.1778774,199.579921 C31.0600897,217.873412 64.5297459,192.216016 86.1070254,196.897909 C86.1070254,196.897909 85.8893871,156.497199 94.0508221,138.42075 L105.041555,120.561341 C107.529477,116.517115 107.326948,111.375975 104.52855,107.538856 L83.7596413,79.1684418 L53.97429,67.9132939 C51.4812412,66.9541108 48.6524474,67.690576 46.9476831,69.742643 L46.9476831,69.742643 C43.274061,74.1155044 42.1061801,80.061801 43.8541106,85.4936489 L43.8541106,85.4936489 Z" id="Path_64" fill="#FFAE21"></path>
                    <g id="Group_29" opacity="0.3" transform="translate(58.393124, 112.298264)" fill="#3A3C4E">
                        <path d="M3.66487294,77.3132544 C6.68005236,73.2347034 9.94569904,69.3463489 13.4430493,65.6705325 C20.4221971,57.2251532 24.7482092,46.9143381 25.8795217,36.0288757 C26.3177212,34.222803 25.828462,32.3176017 24.5736921,30.9439053 C23.1006633,30.2183075 21.4486663,29.932962 19.8167414,30.1222485 C18.1844544,30.0292308 16.22571,28.9905325 16.4433483,27.3627219 C16.5832586,26.2930178 17.6248132,25.6108876 18.5264574,25.0062722 C24.9156951,20.6809467 29.0819133,12.4023669 30.7763827,5.10047337 C31.2738416,2.8835503 32.6107623,0.449585799 34.8804185,0.248047337 C35.8770208,0.271762701 36.850981,0.549273911 37.709716,1.05420118 C39.9226455,1.98242924 41.9104595,3.3727263 43.5393124,5.13147929 C48.4206278,11.0071006 38.8756353,20.8204734 35.6110613,26.1224852 C27.4340807,44.1989349 27.6672646,84.599645 27.6672646,84.599645 C19.6768311,82.8633136 10.0696562,85.2817751 0.400298954,88.1033136 C0.363665964,84.2593541 1.50242879,80.4955189 3.66487294,77.3132544 Z" id="Path_65"></path>
                    </g>
                    <path d="M190.993124,65.634359 L178.727653,81.3233531 C178.401649,81.725897 178.149081,82.1824196 177.981465,82.6721105 L173.208969,96.3922288 L127.893572,123.506903 L71.5408072,99.1827613 C66.5399649,97.0239427 60.7103177,98.9351918 57.9695067,103.63211 L57.9695067,103.63211 C56.5295284,106.094733 56.1300178,109.027126 56.8589409,111.783622 C57.587864,114.540118 59.3854521,116.894696 61.8559043,118.328915 C62.327478,118.5925 62.8155832,118.825527 63.3171898,119.026548 L123.665172,142.730572 C126.081897,143.684902 128.824292,143.295889 130.878326,141.707377 L179.598206,104.097199 L179.9713,104.097199 C182.656476,104.101347 185.006654,102.298966 185.692078,99.7098619 L187.246637,93.6016963 C188.460291,91.5011693 188.941392,89.0586462 188.614649,86.6563708 C188.086099,83.9898619 186.407175,78.6723471 186.391629,78.2382643 L194.630792,66.5955424 L193.931241,65.3553057 C193.062955,64.596617 191.743249,64.6797383 190.977578,65.5413412 L190.993124,65.634359 Z" id="Path_66" fill="#FFCEBD"></path>
                    <g id="Group_30" opacity="0.4" transform="translate(55.964126, 102.319527)" fill="#A58877">
                        <path d="M1.98983558,1.29708087 C2.13068634,1.05018167 2.28642837,0.812032121 2.45620329,0.583944773 C6.35839378,2.16615837 10.0709456,4.17854238 13.5246637,6.58358974 C22.1336832,12.6109983 31.4335942,17.5916984 41.2269058,21.4199211 C46.1245934,22.7496962 50.8949054,24.5083669 55.4822123,26.6754241 C60.3168909,29.3884418 64.9494768,33.806785 70.4526158,33.1246548 C72.7467295,32.6780019 74.9258076,31.7707845 76.8573991,30.458146 C87.3351271,24.2569625 97.5900349,17.7457199 107.622123,10.9244181 C112.2858,7.82382643 117.633483,3.17293886 123.292078,2.01021696 L113.311809,9.76169625 C99.8182362,18.5828797 87.4439462,29.7450099 74.8986547,39.418856 C72.8475509,41.0125991 70.1049202,41.4075395 67.6855007,40.4575542 L7.33751868,16.6915187 C4.67947914,15.6419922 2.54873358,13.5819085 1.41450808,10.9649329 C0.280282592,8.34795725 0.235594185,5.38870596 1.29028401,2.73885602 C1.49207372,2.24373479 1.72574473,1.76213906 1.98983558,1.29708087 L1.98983558,1.29708087 Z" id="Path_67"></path>
                    </g>
                    <path d="M54.8137519,101.446193 C57.762731,96.4044547 64.0235915,94.3542875 69.3955157,96.6712821 L100.346786,107.306312 C103.253812,113.631519 88.7653214,123.103826 89.9467862,133.165247 L60.5656203,117.972347 C54.6311213,115.628117 51.7229079,108.932591 54.0675635,103.011992 C54.2751545,102.471532 54.5246383,101.948016 54.8137519,101.446193 L54.8137519,101.446193 Z" id="Path_68" fill="url(#linearGradient-7)"></path>
                    <g id="Group_31" opacity="0.3" transform="translate(52.855007, 101.446193)" fill="#3A3C4E">
                        <path d="M1.75665172,0.403076923 C2.28520179,0.496094675 2.80338814,0.604615385 3.31121076,0.728639053 C8.08777996,2.26139282 12.5937481,4.53173879 16.6648729,7.45692308 C24.2210295,12.6410867 32.2340661,17.1295728 40.6050822,20.8669822 C38.2311515,23.9800993 36.9968646,27.8095721 37.1073244,31.7190533 L7.72615845,16.5106509 C4.87357775,15.3885825 2.58641813,13.1799619 1.37003587,10.372792 C0.153653604,7.56562206 0.108174466,4.39097327 1.24364723,1.55029586 C1.39002434,1.15740451 1.56137346,0.774220806 1.75665172,0.403076923 L1.75665172,0.403076923 Z" id="Path_69"></path>
                    </g>
                    <g id="Group_32" opacity="0.4" transform="translate(71.509716, 61.138501)" fill="#A58877">
                        <path d="M1.11928251,1.3487574 C0.995133675,1.20001417 0.895438656,1.03256723 0.823916293,0.852662722 C0.652914798,0.341065089 0.792825112,0.620118343 1.11928251,1.3487574 Z" id="Path_70"></path>
                        <path d="M1.11928251,1.33325444 C2.97367914,2.8278791 5.14134361,3.88754573 7.46188341,4.43384615 L7.6328849,4.72840237 C7.83560367,6.93036902 8.30004729,9.10050236 9.01644245,11.1931361 L8.30134529,10.9915976 C5.1922272,9.93739645 2.12974589,3.50366864 1.11928251,1.33325444 Z" id="Path_71"></path>
                    </g>
                    <path d="M40.5273543,39.2018146 C38.0140197,37.9690721 36.5439379,35.2986598 36.8501864,32.5222176 C37.1564349,29.7457755 39.1734293,27.4578897 41.8953662,26.7994477 C40.5025383,24.9134631 40.4804596,22.349056 41.8406093,20.439499 C43.2007589,18.5299421 45.636082,17.7063193 47.8804185,18.3968442 C46.5779257,15.6241479 47.1359005,12.3366245 49.2808208,10.1458355 C51.4257411,7.95504645 54.708027,7.32018577 57.5186846,8.55246548 C56.5976146,6.78231253 56.9797862,4.61626051 58.45142,3.26595661 C59.9301712,1.98027216 61.821779,1.26530238 63.7835575,1.25057199 C65.928849,1.14205128 68.5249626,1.88619329 69.1156951,3.96358974 C70.8808202,0.978547641 74.4753886,-0.40042214 77.7914897,0.635329548 C81.1075909,1.67108124 83.2711626,4.84854958 83.0134529,8.30441815 C84.7919791,6.85443417 87.3392013,6.82227928 89.1539611,8.22690335 C92.6123832,10.4550976 94.5135814,14.4390648 94.0663677,18.5208679 C97.419917,19.2649364 99.7722012,22.277683 99.6735411,25.702395 C99.5748811,29.1271069 97.0530357,32.0002073 93.6621824,32.5510454 C96.5209778,34.4235591 97.3266647,38.2470031 95.4654709,41.1086785 C95.3758758,41.2492769 95.2772125,41.3839197 95.1701046,41.5117554 C93.487918,43.4873122 90.9269824,44.4937516 88.3455904,44.1937673 L88.5787743,44.4263116 C89.1449122,45.3551573 89.3235,46.4682699 89.0762332,47.5269034 C88.682628,49.7796753 87.1735681,51.6812428 85.0654709,52.5808679 C84.8486286,52.6745182 84.6252135,52.75224 84.3970105,52.8134122 C82.444585,53.3387814 80.3589574,52.9693989 78.7073244,51.8057199 C80.1061455,53.3421463 80.0163416,55.711978 78.5052317,57.1387377 C76.94683,58.4529651 74.8150788,58.8640517 72.877728,58.2239448 C70.2505232,57.4798028 68.3073244,53.9916371 66.1153961,56.4566075 C64.6852018,58.0069034 64.9028401,60.8129389 63.1617339,62.270217 C62.3929406,63.000359 61.3416468,63.3573854 60.2857997,63.2469034 C59.8269526,63.1711658 59.4175631,62.9155005 59.1488952,62.5369022 C58.8802273,62.158304 58.7746162,61.6882466 58.8556054,61.2315187 C58.8666768,61.1250193 58.892847,61.0206255 58.9333333,60.9214596 C58.3279577,62.6938351 56.8204163,64.0094993 54.9785854,64.3728542 C53.1367544,64.7362091 51.2404518,64.0920524 50.0039964,62.6830317 C48.767541,61.2740111 48.3787799,59.3141902 48.9841555,57.5418146 C49.0649852,57.2898729 49.1690681,57.0459489 49.2950673,56.8131755 C47.7405082,56.999211 46.5279522,58.4874951 44.9578475,58.5805128 C43.1066829,58.4777542 41.6382782,56.9865071 41.5689088,55.138856 C41.5661252,53.3492404 42.0209058,51.5884636 42.890284,50.0228797 C41.335725,50.3174359 40.0143498,49.0927022 39.019432,47.9144773 C37.5443725,46.4806687 36.6529489,44.5536274 36.5165919,42.5039448 C36.5321375,40.4110454 38.6307922,38.4266667 40.5273543,39.2018146 Z" id="Path_72" fill="#FF0084"></path>
                    <path d="M59.6950673,31.3418146 C60.6346795,27.585979 62.5735349,24.1527434 65.3070254,21.4044181 C69.2245142,17.8697436 73.3285501,18.7689152 78.0544096,18.830927 C82.4585303,18.7704334 86.6254518,20.8164812 89.2627803,24.3344773 C91.0083878,26.5172718 91.5503793,29.4232132 90.7085202,32.0859566 C90.1275758,33.1002641 89.6634445,34.1768003 89.3249626,35.295069 C89.2329849,36.615157 89.5534061,37.9312387 90.2421525,39.062288 C91.3925262,41.3257199 95.4188341,45.3564892 94.9058296,48.022998 C94.5972436,48.910097 94.0985884,49.7195121 93.4445441,50.3949507 C91.1282511,53.6195661 92.4340807,58.3169625 90.5686099,61.8206312 C88.438864,65.8358974 82.8890882,66.7815779 78.5207773,65.5103353 C74.1524664,64.2390927 70.4526158,61.3555424 66.3796712,59.3091519 C64.7009747,58.6128398 63.1096974,57.7231276 61.6382661,56.658146 C58.4047833,53.9451282 57.6119581,49.3097436 57.6430493,45.0929389 C57.6579661,40.4344882 58.349142,35.8027328 59.6950673,31.3418146 Z" id="Path_73" fill="#FFCEBD"></path>
                    <path d="M53.7566517,28.7373176 C56.6385752,22.7750221 61.7345836,18.1656068 67.9653214,15.8853649 C74.1945818,13.6456313 81.0125931,13.6456313 87.2418535,15.8853649 C88.7964126,16.4434714 90.7085202,17.9317554 89.9467862,19.4510454 L91.1282511,22.6446548 C91.784705,25.2517477 90.1979621,27.8960071 87.5838565,28.5512821 C86.9491348,28.7132741 86.2880195,28.7449206 85.6406539,28.6442998 C86.277913,30.5156766 85.9209416,32.5816001 84.6923767,34.1323471 C83.2932735,35.4966075 80.277429,34.8919921 80.2152466,32.9386193 C80.3665563,34.8602804 79.814258,36.7714997 78.6606876,38.318146 C77.4704023,39.4115272 75.6381179,39.4115272 74.4478326,38.318146 C75.005237,39.7500443 74.9618076,41.345331 74.3273189,42.7449595 C73.6928302,44.144588 72.5205931,45.2309589 71.0744395,45.7595661 C70.5733352,45.9402039 70.050737,46.0548602 69.5198804,46.1006312 C70.3282511,45.9611045 70.6547085,47.1393294 70.5769806,47.9609862 C70.5458504,50.2690782 69.7537138,52.5027704 68.32287,54.3171992 C66.7653662,56.1126688 64.0764339,56.3910077 62.1823617,54.9528205 C63.1928251,56.7356607 61.0164425,59.0456016 58.9644245,58.7510454 C56.9189915,58.22222 55.3448065,56.5924334 54.8914798,54.5342406 C54.2852018,52.5653649 54.238565,50.4569625 53.6633782,48.4880868 C53.368012,49.6353057 51.5180867,49.6042998 50.7874439,48.6586193 C50.1931333,47.6209694 49.9996279,46.4024713 50.2433483,45.2324655 C50.4228968,39.5696458 51.612583,33.9840057 53.7566517,28.7373176 L53.7566517,28.7373176 Z" id="Path_74" fill="#FF0084"></path>
                </g>
            </g>
        </g>
    </g>
</svg>